<?xml version="1.0" encoding="UTF-8"?>
<!DOCTYPE svg PUBLIC "-//W3C//DTD SVG 1.1//EN" "http://www.w3.org/Graphics/SVG/1.1/DTD/svg11.dtd">
<svg xmlns="http://www.w3.org/2000/svg" version="1.1" width="300px" height="300px" style="shape-rendering:geometricPrecision; text-rendering:geometricPrecision; image-rendering:optimizeQuality; fill-rule:evenodd; clip-rule:evenodd" xmlns:xlink="http://www.w3.org/1999/xlink">
<g><path style="opacity:0.987" fill="#090907" d="M 83.5,-0.5 C 127.5,-0.5 171.5,-0.5 215.5,-0.5C 266.5,4.5 294.5,32.5 299.5,83.5C 299.5,127.5 299.5,171.5 299.5,215.5C 294.5,266.5 266.5,294.5 215.5,299.5C 171.5,299.5 127.5,299.5 83.5,299.5C 32.4967,294.497 4.49666,266.497 -0.5,215.5C -0.5,171.5 -0.5,127.5 -0.5,83.5C 4.49666,32.5033 32.4967,4.50334 83.5,-0.5 Z M 91.5,27.5 C 134.187,27.0691 176.853,27.5691 219.5,29C 242.816,31.0005 258.649,42.8339 267,64.5C 269.309,73.3547 270.642,82.3547 271,91.5C 271.667,130.167 271.667,168.833 271,207.5C 270.497,249.337 249.33,270.503 207.5,271C 168.833,271.667 130.167,271.667 91.5,271C 49.6701,270.503 28.5035,249.337 28,207.5C 27.3333,168.833 27.3333,130.167 28,91.5C 28.6788,49.655 49.8454,28.3216 91.5,27.5 Z M 140.5,100.5 C 170.545,98.3997 189.711,111.733 198,140.5C 200.585,170.569 187.418,189.735 158.5,198C 128.431,200.585 109.265,187.418 101,158.5C 98.6192,128.409 111.786,109.075 140.5,100.5 Z"/></g>
<g><path style="opacity:0.968" fill="#090907" d="M 225.5,50.5 C 238.925,49.9288 246.591,56.2621 248.5,69.5C 247.174,80.8256 240.841,87.1589 229.5,88.5C 212.422,84.6782 207.256,74.6782 214,58.5C 217.15,54.6893 220.983,52.0226 225.5,50.5 Z"/></g>
<g><path style="opacity:0.982" fill="#090907" d="M 142.5,71.5 C 184.381,71.2326 211.881,90.8993 225,130.5C 232.199,171.601 217.366,201.767 180.5,221C 144.316,234.047 113.482,226.214 88,197.5C 66,165.5 66,133.5 88,101.5C 102.284,84.278 120.451,74.278 142.5,71.5 Z M 140.5,100.5 C 111.786,109.075 98.6192,128.409 101,158.5C 109.265,187.418 128.431,200.585 158.5,198C 187.418,189.735 200.585,170.569 198,140.5C 189.711,111.733 170.545,98.3997 140.5,100.5 Z"/></g>
</svg>
