<?xml version="1.0" encoding="UTF-8"?>
<!DOCTYPE svg PUBLIC "-//W3C//DTD SVG 1.1//EN" "http://www.w3.org/Graphics/SVG/1.1/DTD/svg11.dtd">
<svg xmlns="http://www.w3.org/2000/svg" version="1.1" width="215px" height="212px" style="shape-rendering:geometricPrecision; text-rendering:geometricPrecision; image-rendering:optimizeQuality; fill-rule:evenodd; clip-rule:evenodd" xmlns:xlink="http://www.w3.org/1999/xlink">
<g><path style="opacity:1" fill="#87816c" d="M 143.5,-0.5 C 144.167,-0.5 144.833,-0.5 145.5,-0.5C 145.833,0.166667 146.167,0.833333 146.5,1.5C 144.973,1.57298 143.973,0.906316 143.5,-0.5 Z"/></g>
<g><path style="opacity:1" fill="#fefffd" d="M 149.5,-0.5 C 150.167,-0.5 150.833,-0.5 151.5,-0.5C 150.833,0.833333 150.167,0.833333 149.5,-0.5 Z"/></g>
<g><path style="opacity:1" fill="#7d7979" d="M 130.5,-0.5 C 132.167,-0.5 133.833,-0.5 135.5,-0.5C 133.095,0.768202 130.428,1.43487 127.5,1.5C 128.5,0.833333 129.5,0.166667 130.5,-0.5 Z"/></g>
<g><path style="opacity:1" fill="#fefffd" d="M 122.5,1.5 C 123.833,2.16667 123.833,2.16667 122.5,1.5 Z"/></g>
<g><path style="opacity:1" fill="#fefffd" d="M 120.5,2.5 C 121.833,3.16667 121.833,3.16667 120.5,2.5 Z"/></g>
<g><path style="opacity:1" fill="#fefffd" d="M 119.5,5.5 C 120.833,6.16667 120.833,6.16667 119.5,5.5 Z"/></g>
<g><path style="opacity:1" fill="#fefefb" d="M 79.5,7.5 C 79.8966,6.47498 80.5632,6.30831 81.5,7C 80.9056,7.46434 80.2389,7.63101 79.5,7.5 Z"/></g>
<g><path style="opacity:1" fill="#fefffd" d="M 83.5,6.5 C 84.8333,7.16667 84.8333,7.16667 83.5,6.5 Z"/></g>
<g><path style="opacity:1" fill="#9c9a92" d="M 127.5,1.5 C 124.22,4.40458 122.887,8.07124 123.5,12.5C 121.623,11.3409 121.123,9.67422 122,7.5C 122.715,4.35885 124.548,2.35885 127.5,1.5 Z"/></g>
<g><path style="opacity:1" fill="#fefffd" d="M 159.5,6.5 C 160.833,7.16667 160.833,7.16667 159.5,6.5 Z"/></g>
<g><path style="opacity:1" fill="#fefffd" d="M 164.5,6.5 C 165.833,7.16667 165.833,7.16667 164.5,6.5 Z"/></g>
<g><path style="opacity:1" fill="#fefffd" d="M 79.5,8.5 C 80.8333,9.16667 80.8333,9.16667 79.5,8.5 Z"/></g>
<g><path style="opacity:1" fill="#fefffd" d="M 84.5,8.5 C 85.8333,9.16667 85.8333,9.16667 84.5,8.5 Z"/></g>
<g><path style="opacity:1" fill="#fefffd" d="M 162.5,10.5 C 162.897,9.47498 163.563,9.30831 164.5,10C 163.906,10.4643 163.239,10.631 162.5,10.5 Z"/></g>
<g><path style="opacity:1" fill="#97937e" d="M 146.5,1.5 C 154.395,5.37173 161.561,10.3717 168,16.5C 169.765,19.0321 171.265,21.6987 172.5,24.5C 169.32,20.7169 165.987,16.8836 162.5,13C 156.923,9.39018 151.59,5.55684 146.5,1.5 Z"/></g>
<g><path style="opacity:1" fill="#94908b" d="M 103.5,19.5 C 100.61,16.4474 97.2762,13.9474 93.5,12C 89.3609,11.1297 85.6942,11.963 82.5,14.5C 81.609,15.1098 80.609,15.4431 79.5,15.5C 83.7813,10.8159 89.1146,9.31588 95.5,11C 99.0705,13.0678 101.737,15.9012 103.5,19.5 Z"/></g>
<g><path style="opacity:1" fill="#fefffd" d="M 55.5,13.5 C 56.525,13.8966 56.6917,14.5632 56,15.5C 55.5357,14.9056 55.369,14.2389 55.5,13.5 Z"/></g>
<g><path style="opacity:1" fill="#fefffd" d="M 57.5,14.5 C 57.8966,13.475 58.5632,13.3083 59.5,14C 58.9056,14.4643 58.2389,14.631 57.5,14.5 Z"/></g>
<g><path style="opacity:1" fill="#fefffd" d="M 72.5,13.5 C 73.8333,14.1667 73.8333,14.1667 72.5,13.5 Z"/></g>
<g><path style="opacity:1" fill="#fefefb" d="M 168.5,14.5 C 169.077,13.2267 169.743,13.2267 170.5,14.5C 170.03,15.463 169.363,15.463 168.5,14.5 Z"/></g>
<g><path style="opacity:1" fill="#fefffd" d="M 173.5,13.5 C 174.833,14.1667 174.833,14.1667 173.5,13.5 Z"/></g>
<g><path style="opacity:1" fill="#fefffd" d="M 52.5,15.5 C 52.8966,14.475 53.5632,14.3083 54.5,15C 53.9056,15.4643 53.2389,15.631 52.5,15.5 Z"/></g>
<g><path style="opacity:1" fill="#fefffd" d="M 172.5,15.5 C 173.833,16.1667 173.833,16.1667 172.5,15.5 Z"/></g>
<g><path style="opacity:1" fill="#828079" d="M 57.5,18.5 C 54.4299,18.3677 51.4299,18.701 48.5,19.5C 45.5979,20.5778 42.5979,21.2444 39.5,21.5C 42.2823,20.067 45.2823,18.9003 48.5,18C 47.3044,17.3457 47.3044,16.8457 48.5,16.5C 51.6404,17.0894 54.6404,17.7561 57.5,18.5 Z"/></g>
<g><path style="opacity:1" fill="#fefffd" d="M 72.5,19.5 C 73.8333,20.1667 73.8333,20.1667 72.5,19.5 Z"/></g>
<g><path style="opacity:1" fill="#9b9683" d="M 57.5,18.5 C 61.8744,20.9367 63.2078,24.6034 61.5,29.5C 57.9819,32.9793 54.3152,33.3127 50.5,30.5C 50.8333,30.5 51.1667,30.5 51.5,30.5C 62.0576,30.7182 64.0576,26.7182 57.5,18.5 Z"/></g>
<g><path style="opacity:1" fill="#fdfef9" d="M 62.5,20.5 C 63.8333,21.1667 63.8333,21.1667 62.5,20.5 Z"/></g>
<g><path style="opacity:1" fill="#efe826" d="M 135.5,-0.5 C 138.167,-0.5 140.833,-0.5 143.5,-0.5C 143.973,0.906316 144.973,1.57298 146.5,1.5C 151.59,5.55684 156.923,9.39018 162.5,13C 165.987,16.8836 169.32,20.7169 172.5,24.5C 173.822,26.3111 174.322,28.3111 174,30.5C 171.331,33.9997 168.498,37.333 165.5,40.5C 165.167,41.5 164.5,42.1667 163.5,42.5C 162.85,42.1961 162.183,41.8627 161.5,41.5C 160.794,43.704 159.794,45.704 158.5,47.5C 152.882,51.4891 146.549,53.1558 139.5,52.5C 138.833,57.5 138.167,62.5 137.5,67.5C 137.672,68.4916 137.338,69.1583 136.5,69.5C 134.983,69.5106 133.816,70.1772 133,71.5C 132.505,73.4727 132.338,75.4727 132.5,77.5C 132.5,78.1667 132.5,78.8333 132.5,79.5C 131.069,80.7804 130.402,82.4471 130.5,84.5C 129.21,85.0577 128.377,86.0577 128,87.5C 127.464,93.6394 126.298,99.6394 124.5,105.5C 123.566,106.568 123.232,107.901 123.5,109.5C 114.167,109.5 104.833,109.5 95.5,109.5C 93.7601,107.026 92.2601,104.359 91,101.5C 92.2949,89.987 89.7949,79.487 83.5,70C 78.8644,67.6822 74.1978,65.3489 69.5,63C 68,60.1667 65.8333,58 63,56.5C 63.4996,61.511 63.333,66.511 62.5,71.5C 60.9291,72.3094 59.2624,72.6427 57.5,72.5C 55.9724,71.6908 54.3057,71.0241 52.5,70.5C 52.6107,69.8826 52.944,69.3826 53.5,69C 51.3058,66.8255 48.6392,65.4921 45.5,65C 46.7112,64.1072 46.7112,63.2739 45.5,62.5C 41.939,63.7938 41.6057,62.9604 44.5,60C 44.1667,58.3333 43.8333,56.6667 43.5,55C 45.6705,53.4138 48.0038,52.0804 50.5,51C 48.6183,50.8019 46.9516,50.3019 45.5,49.5C 48.9023,49.3424 52.2356,49.6758 55.5,50.5C 55.4176,52.2517 56.2509,53.2517 58,53.5C 63.5055,50.3881 69.3388,49.7214 75.5,51.5C 76.5383,53.5195 77.8716,53.8528 79.5,52.5C 84.2595,52.4867 88.9262,51.8201 93.5,50.5C 91.8333,48.5 90.1667,46.5 88.5,44.5C 89.7515,43.3689 90.7515,42.0356 91.5,40.5C 90.6931,35.2821 89.3598,30.2821 87.5,25.5C 87.8333,24.8333 88.1667,24.1667 88.5,23.5C 84.3582,21.99 82.3582,18.99 82.5,14.5C 85.6942,11.963 89.3609,11.1297 93.5,12C 97.2762,13.9474 100.61,16.4474 103.5,19.5C 104.434,20.5676 104.768,21.901 104.5,23.5C 105.229,28.1304 105.563,32.7971 105.5,37.5C 103.694,43.1456 100.194,47.4789 95,50.5C 94.9232,56.2206 95.5898,61.8872 97,67.5C 98.2124,71.3453 100.379,72.1787 103.5,70C 98.3086,64.3099 97.1419,57.8099 100,50.5C 103.543,46.4259 108.043,44.2593 113.5,44C 115.32,40.8586 116.986,37.6919 118.5,34.5C 119.975,32.5905 121.975,31.4238 124.5,31C 127.146,30.5026 129.813,30.3359 132.5,30.5C 136.852,32.1323 140.852,31.2989 144.5,28C 149.184,27.5386 153.851,27.7053 158.5,28.5C 158.702,26.0108 158.202,23.6775 157,21.5C 151.91,16.0513 146.076,11.7179 139.5,8.5C 136.293,10.4158 132.96,12.2492 129.5,14C 127.16,14.7484 125.16,14.2484 123.5,12.5C 122.887,8.07124 124.22,4.40458 127.5,1.5C 130.428,1.43487 133.095,0.768202 135.5,-0.5 Z"/></g>
<g><path style="opacity:1" fill="#1b1a1d" d="M 139.5,8.5 C 146.076,11.7179 151.91,16.0513 157,21.5C 158.202,23.6775 158.702,26.0108 158.5,28.5C 153.851,27.7053 149.184,27.5386 144.5,28C 140.852,31.2989 136.852,32.1323 132.5,30.5C 134.099,30.7678 135.432,30.4345 136.5,29.5C 139.26,26.7417 142.593,25.4084 146.5,25.5C 146.5,24.5 146.5,23.5 146.5,22.5C 146.663,20.1432 146.497,17.8098 146,15.5C 145.617,14.944 145.117,14.6107 144.5,14.5C 142.611,13.396 140.945,12.0627 139.5,10.5C 139.5,9.83333 139.5,9.16667 139.5,8.5 Z"/></g>
<g><path style="opacity:1" fill="#cbcbcb" d="M 144.5,14.5 C 145.117,14.6107 145.617,14.944 146,15.5C 146.497,17.8098 146.663,20.1432 146.5,22.5C 145.629,19.997 144.963,17.3303 144.5,14.5 Z"/></g>
<g><path style="opacity:1" fill="#fefffd" d="M 126.5,20.5 C 127.833,21.1667 127.833,21.1667 126.5,20.5 Z"/></g>
<g><path style="opacity:1" fill="#fefffd" d="M 130.5,19.5 C 131.833,20.1667 131.833,20.1667 130.5,19.5 Z"/></g>
<g><path style="opacity:1" fill="#fdfef9" d="M 134.5,18.5 C 135.833,19.1667 135.833,19.1667 134.5,18.5 Z"/></g>
<g><path style="opacity:1" fill="#fefffd" d="M 130.5,19.5 C 129.833,18.1667 129.833,18.1667 130.5,19.5 Z"/></g>
<g><path style="opacity:1" fill="#fdfef9" d="M 127.5,18.5 C 128.833,19.1667 128.833,19.1667 127.5,18.5 Z"/></g>
<g><path style="opacity:1" fill="#fefffd" d="M 132.5,17.5 C 133.833,18.1667 133.833,18.1667 132.5,17.5 Z"/></g>
<g><path style="opacity:1" fill="#fefffd" d="M 133.5,15.5 C 133.103,16.525 132.437,16.6917 131.5,16C 132.094,15.5357 132.761,15.369 133.5,15.5 Z"/></g>
<g><path style="opacity:1" fill="#fefffd" d="M 133.5,14.5 C 134.833,15.1667 134.833,15.1667 133.5,14.5 Z"/></g>
<g><path style="opacity:1" fill="#a4a093" d="M 139.5,8.5 C 139.5,9.16667 139.5,9.83333 139.5,10.5C 135.727,12.6658 131.727,14.6658 127.5,16.5C 125.192,16.0345 123.858,14.7012 123.5,12.5C 125.16,14.2484 127.16,14.7484 129.5,14C 132.96,12.2492 136.293,10.4158 139.5,8.5 Z"/></g>
<g><path style="opacity:1" fill="#fefffd" d="M 119.5,12.5 C 120.833,13.1667 120.833,13.1667 119.5,12.5 Z"/></g>
<g><path style="opacity:1" fill="#fdfef9" d="M 143.5,23.5 C 144.833,24.1667 144.833,24.1667 143.5,23.5 Z"/></g>
<g><path style="opacity:1" fill="#e1dd27" d="M 57.5,18.5 C 64.0576,26.7182 62.0576,30.7182 51.5,30.5C 50.0402,27.8714 48.3735,25.3714 46.5,23C 46.9783,21.6974 47.645,20.5307 48.5,19.5C 51.4299,18.701 54.4299,18.3677 57.5,18.5 Z"/></g>
<g><path style="opacity:1" fill="#1b1b1a" d="M 82.5,14.5 C 82.3582,18.99 84.3582,21.99 88.5,23.5C 88.1667,24.1667 87.8333,24.8333 87.5,25.5C 89.3598,30.2821 90.6931,35.2821 91.5,40.5C 90.7515,42.0356 89.7515,43.3689 88.5,44.5C 90.1667,46.5 91.8333,48.5 93.5,50.5C 88.9262,51.8201 84.2595,52.4867 79.5,52.5C 79.5,52.1667 79.5,51.8333 79.5,51.5C 82.5531,50.7205 84.2197,48.7205 84.5,45.5C 83.8793,41.5917 82.2126,38.2584 79.5,35.5C 79.573,33.9731 78.9063,32.9731 77.5,32.5C 76.6575,29.6743 75.9908,26.6743 75.5,23.5C 75.8999,20.2593 77.2332,17.5926 79.5,15.5C 80.609,15.4431 81.609,15.1098 82.5,14.5 Z"/></g>
<g><path style="opacity:1" fill="#b5b3a5" d="M 172.5,24.5 C 174.478,25.3171 175.478,26.8171 175.5,29C 174.71,31.2818 173.71,33.4484 172.5,35.5C 170.427,37.5798 168.093,39.2464 165.5,40.5C 168.498,37.333 171.331,33.9997 174,30.5C 174.322,28.3111 173.822,26.3111 172.5,24.5 Z"/></g>
<g><path style="opacity:1" fill="#fefffd" d="M 111.5,30.5 C 112.833,31.1667 112.833,31.1667 111.5,30.5 Z"/></g>
<g><path style="opacity:1" fill="#fefffd" d="M 116.5,30.5 C 117.833,31.1667 117.833,31.1667 116.5,30.5 Z"/></g>
<g><path style="opacity:1" fill="#8e887c" d="M 136.5,29.5 C 135.432,30.4345 134.099,30.7678 132.5,30.5C 129.813,30.3359 127.146,30.5026 124.5,31C 121.975,31.4238 119.975,32.5905 118.5,34.5C 117.833,34.5 117.167,34.5 116.5,34.5C 117.894,32.2918 119.894,30.7918 122.5,30C 127.155,29.5008 131.821,29.3342 136.5,29.5 Z"/></g>
<g><path style="opacity:1" fill="#fefefb" d="M 114.5,31.5 C 115.525,31.8966 115.692,32.5632 115,33.5C 114.536,32.9056 114.369,32.2389 114.5,31.5 Z"/></g>
<g><path style="opacity:1" fill="#fefffd" d="M 52.5,33.5 C 53.8333,34.1667 53.8333,34.1667 52.5,33.5 Z"/></g>
<g><path style="opacity:1" fill="#fefffd" d="M 54.5,33.5 C 55.8333,34.1667 55.8333,34.1667 54.5,33.5 Z"/></g>
<g><path style="opacity:1" fill="#fefffd" d="M 56.5,33.5 C 57.8333,34.1667 57.8333,34.1667 56.5,33.5 Z"/></g>
<g><path style="opacity:1" fill="#cfcfce" d="M 77.5,32.5 C 78.9063,32.9731 79.573,33.9731 79.5,35.5C 78.0937,35.0269 77.427,34.0269 77.5,32.5 Z"/></g>
<g><path style="opacity:1" fill="#635f46" d="M 104.5,23.5 C 105.222,23.9175 105.722,24.5842 106,25.5C 106.499,29.4862 106.666,33.4862 106.5,37.5C 106.167,37.5 105.833,37.5 105.5,37.5C 105.563,32.7971 105.229,28.1304 104.5,23.5 Z"/></g>
<g><path style="opacity:1" fill="#fefffd" d="M 174.5,33.5 C 175.833,34.1667 175.833,34.1667 174.5,33.5 Z"/></g>
<g><path style="opacity:1" fill="#fafbfa" d="M 112.5,34.5 C 113.833,35.1667 113.833,35.1667 112.5,34.5 Z"/></g>
<g><path style="opacity:1" fill="#fefffd" d="M 112.5,35.5 C 112.217,36.2891 111.717,36.9558 111,37.5C 110.472,36.184 110.972,35.5173 112.5,35.5 Z"/></g>
<g><path style="opacity:1" fill="#fefffd" d="M 172.5,35.5 C 173.239,35.369 173.906,35.5357 174.5,36C 173.563,36.6917 172.897,36.525 172.5,35.5 Z"/></g>
<g><path style="opacity:1" fill="#fefffd" d="M 52.5,37.5 C 53.2506,36.4265 54.2506,36.2599 55.5,37C 54.552,37.4828 53.552,37.6495 52.5,37.5 Z"/></g>
<g><path style="opacity:1" fill="#fefffd" d="M 170.5,38.5 C 171.833,39.1667 171.833,39.1667 170.5,38.5 Z"/></g>
<g><path style="opacity:1" fill="#cac570" d="M 163.5,42.5 C 162.918,43.9311 162.085,45.2644 161,46.5C 160.329,47.2524 159.496,47.5858 158.5,47.5C 159.794,45.704 160.794,43.704 161.5,41.5C 162.183,41.8627 162.85,42.1961 163.5,42.5 Z"/></g>
<g><path style="opacity:1" fill="#827f68" d="M 45.5,33.5 C 45.8333,33.5 46.1667,33.5 46.5,33.5C 46.5,38.1667 46.5,42.8333 46.5,47.5C 50.1547,46.925 53.1547,47.925 55.5,50.5C 52.2356,49.6758 48.9023,49.3424 45.5,49.5C 45.08,44.0666 45.08,38.7333 45.5,33.5 Z"/></g>
<g><path style="opacity:1" fill="#1d1d1e" d="M 48.5,19.5 C 47.645,20.5307 46.9783,21.6974 46.5,23C 48.3735,25.3714 50.0402,27.8714 51.5,30.5C 51.1667,30.5 50.8333,30.5 50.5,30.5C 47.9038,29.175 46.5704,30.175 46.5,33.5C 46.1667,33.5 45.8333,33.5 45.5,33.5C 45.5,32.5 45.5,31.5 45.5,30.5C 42.6354,30.0548 40.1354,30.7215 38,32.5C 34.6368,37.893 31.8035,43.5597 29.5,49.5C 33.6504,60.3158 41.3171,67.3158 52.5,70.5C 54.3057,71.0241 55.9724,71.6908 57.5,72.5C 57.1667,73.1667 56.8333,73.8333 56.5,74.5C 54.9582,75.3007 53.2915,75.634 51.5,75.5C 48.5755,75.5402 45.9088,74.7068 43.5,73C 38.772,69.2744 33.772,65.9411 28.5,63C 25.7645,60.8523 23.7645,58.1856 22.5,55C 23.8689,48.2268 26.0355,41.7268 29,35.5C 33.1616,31.1934 36.6616,26.5267 39.5,21.5C 42.5979,21.2444 45.5979,20.5778 48.5,19.5 Z"/></g>
<g><path style="opacity:1" fill="#fefffd" d="M 60.5,47.5 C 59.8333,46.1667 59.8333,46.1667 60.5,47.5 Z"/></g>
<g><path style="opacity:1" fill="#fefffd" d="M 65.5,46.5 C 66.8333,47.1667 66.8333,47.1667 65.5,46.5 Z"/></g>
<g><path style="opacity:1" fill="#fefffd" d="M 78.5,46.5 C 79.8333,47.1667 79.8333,47.1667 78.5,46.5 Z"/></g>
<g><path style="opacity:1" fill="#fdfef9" d="M 60.5,47.5 C 61.8333,48.1667 61.8333,48.1667 60.5,47.5 Z"/></g>
<g><path style="opacity:1" fill="#fefffd" d="M 62.5,47.5 C 63.8333,48.1667 63.8333,48.1667 62.5,47.5 Z"/></g>
<g><path style="opacity:1" fill="#fefffd" d="M 76.5,47.5 C 77.8333,48.1667 77.8333,48.1667 76.5,47.5 Z"/></g>
<g><path style="opacity:1" fill="#fefffd" d="M 80.5,47.5 C 81.8333,48.1667 81.8333,48.1667 80.5,47.5 Z"/></g>
<g><path style="opacity:1" fill="#fefffd" d="M 164.5,47.5 C 165.833,48.1667 165.833,48.1667 164.5,47.5 Z"/></g>
<g><path style="opacity:1" fill="#fefffd" d="M 80.5,48.5 C 79.8333,49.1667 79.8333,49.1667 80.5,48.5 Z"/></g>
<g><path style="opacity:1" fill="#fefffd" d="M 59.5,50.5 C 58.7611,50.631 58.0944,50.4643 57.5,50C 58.4368,49.3083 59.1034,49.475 59.5,50.5 Z"/></g>
<g><path style="opacity:1" fill="#948e6d" d="M 75.5,51.5 C 69.3388,49.7214 63.5055,50.3881 58,53.5C 56.2509,53.2517 55.4176,52.2517 55.5,50.5C 56.9613,51.6857 58.2946,51.6857 59.5,50.5C 62.1484,49.8379 64.8151,49.1712 67.5,48.5C 70.5048,48.9054 73.1715,49.9054 75.5,51.5 Z"/></g>
<g><path style="opacity:1" fill="#0e0d0e" d="M 116.5,34.5 C 117.167,34.5 117.833,34.5 118.5,34.5C 116.986,37.6919 115.32,40.8586 113.5,44C 108.043,44.2593 103.543,46.4259 100,50.5C 97.1419,57.8099 98.3086,64.3099 103.5,70C 100.379,72.1787 98.2124,71.3453 97,67.5C 95.5898,61.8872 94.9232,56.2206 95,50.5C 100.194,47.4789 103.694,43.1456 105.5,37.5C 105.833,37.5 106.167,37.5 106.5,37.5C 106.5,37.8333 106.5,38.1667 106.5,38.5C 107.622,39.1558 108.955,39.4892 110.5,39.5C 112.333,39.4146 113.666,38.7479 114.5,37.5C 114.427,35.9731 115.094,34.9731 116.5,34.5 Z"/></g>
<g><path style="opacity:1" fill="#a9a8aa" d="M 114.5,37.5 C 113.666,38.7479 112.333,39.4146 110.5,39.5C 108.955,39.4892 107.622,39.1558 106.5,38.5C 109.064,38.6294 111.731,38.296 114.5,37.5 Z"/></g>
<g><path style="opacity:1" fill="#a8a48e" d="M 75.5,51.5 C 76.8333,51.5 78.1667,51.5 79.5,51.5C 79.5,51.8333 79.5,52.1667 79.5,52.5C 77.8716,53.8528 76.5383,53.5195 75.5,51.5 Z"/></g>
<g><path style="opacity:1" fill="#aca78e" d="M 158.5,47.5 C 158.586,48.4959 158.252,49.3292 157.5,50C 152.258,53.0236 146.592,54.5236 140.5,54.5C 140.626,59.2216 139.626,63.5549 137.5,67.5C 138.167,62.5 138.833,57.5 139.5,52.5C 146.549,53.1558 152.882,51.4891 158.5,47.5 Z"/></g>
<g><path style="opacity:1" fill="#fefffd" d="M 154.5,52.5 C 155.833,53.1667 155.833,53.1667 154.5,52.5 Z"/></g>
<g><path style="opacity:1" fill="#dfd925" d="M 45.5,33.5 C 45.08,38.7333 45.08,44.0666 45.5,49.5C 46.9516,50.3019 48.6183,50.8019 50.5,51C 48.0038,52.0804 45.6705,53.4138 43.5,55C 43.8333,56.6667 44.1667,58.3333 44.5,60C 41.6057,62.9604 41.939,63.7938 45.5,62.5C 46.7112,63.2739 46.7112,64.1072 45.5,65C 48.6392,65.4921 51.3058,66.8255 53.5,69C 52.944,69.3826 52.6107,69.8826 52.5,70.5C 41.3171,67.3158 33.6504,60.3158 29.5,49.5C 31.8035,43.5597 34.6368,37.893 38,32.5C 40.1354,30.7215 42.6354,30.0548 45.5,30.5C 45.5,31.5 45.5,32.5 45.5,33.5 Z"/></g>
<g><path style="opacity:1" fill="#131212" d="M 95.5,109.5 C 95.5,109.833 95.5,110.167 95.5,110.5C 90.3329,111.81 85.1662,111.81 80,110.5C 78.7957,104.247 78.129,97.9138 78,91.5C 76.955,90.6266 76.1217,89.6266 75.5,88.5C 74.4154,86.4131 72.7488,85.0798 70.5,84.5C 67.5622,83.378 65.5622,81.378 64.5,78.5C 64.67,77.1779 64.3366,76.0113 63.5,75C 61.1902,74.5034 58.8568,74.3367 56.5,74.5C 56.8333,73.8333 57.1667,73.1667 57.5,72.5C 59.2624,72.6427 60.9291,72.3094 62.5,71.5C 63.333,66.511 63.4996,61.511 63,56.5C 65.8333,58 68,60.1667 69.5,63C 74.1978,65.3489 78.8644,67.6822 83.5,70C 89.7949,79.487 92.2949,89.987 91,101.5C 92.2601,104.359 93.7601,107.026 95.5,109.5 Z"/></g>
<g><path style="opacity:1" fill="#fefffd" d="M 142.5,65.5 C 143.833,66.1667 143.833,66.1667 142.5,65.5 Z"/></g>
<g><path style="opacity:1" fill="#fefffd" d="M 141.5,67.5 C 142.833,68.1667 142.833,68.1667 141.5,67.5 Z"/></g>
<g><path style="opacity:1" fill="#857d67" d="M 136.5,69.5 C 135.833,70.5 135.167,71.5 134.5,72.5C 133.833,74.1667 133.167,75.8333 132.5,77.5C 132.338,75.4727 132.505,73.4727 133,71.5C 133.816,70.1772 134.983,69.5106 136.5,69.5 Z"/></g>
<g><path style="opacity:1" fill="#a8a8a6" d="M 56.5,74.5 C 58.8568,74.3367 61.1902,74.5034 63.5,75C 64.3366,76.0113 64.67,77.1779 64.5,78.5C 63.7326,77.828 63.0659,76.9947 62.5,76C 58.6521,76.1214 54.9854,75.9547 51.5,75.5C 53.2915,75.634 54.9582,75.3007 56.5,74.5 Z"/></g>
<g><path style="opacity:1" fill="#fbfbf9" d="M 134.5,72.5 C 134.662,74.5273 134.495,76.5273 134,78.5C 133.617,79.056 133.117,79.3893 132.5,79.5C 132.5,78.8333 132.5,78.1667 132.5,77.5C 133.167,75.8333 133.833,74.1667 134.5,72.5 Z"/></g>
<g><path style="opacity:1" fill="#9d9991" d="M 132.5,79.5 C 132.598,81.5529 131.931,83.2196 130.5,84.5C 130.402,82.4471 131.069,80.7804 132.5,79.5 Z"/></g>
<g><path style="opacity:1" fill="#8c8b8c" d="M 70.5,84.5 C 72.7488,85.0798 74.4154,86.4131 75.5,88.5C 73.2512,87.9202 71.5846,86.5869 70.5,84.5 Z"/></g>
<g><path style="opacity:1" fill="#fefffd" d="M 130.5,90.5 C 131.525,90.8966 131.692,91.5632 131,92.5C 130.536,91.9056 130.369,91.2389 130.5,90.5 Z"/></g>
<g><path style="opacity:1" fill="#fefffd" d="M 133.5,90.5 C 134.833,91.1667 134.833,91.1667 133.5,90.5 Z"/></g>
<g><path style="opacity:1" fill="#aaa587" d="M 130.5,84.5 C 129.344,93.4815 127.344,102.148 124.5,110.5C 124.5,108.833 124.5,107.167 124.5,105.5C 126.298,99.6394 127.464,93.6394 128,87.5C 128.377,86.0577 129.21,85.0577 130.5,84.5 Z"/></g>
<g><path style="opacity:1" fill="#979558" d="M 124.5,105.5 C 124.5,107.167 124.5,108.833 124.5,110.5C 114.833,111.833 105.167,111.833 95.5,110.5C 95.5,110.167 95.5,109.833 95.5,109.5C 104.833,109.5 114.167,109.5 123.5,109.5C 123.232,107.901 123.566,106.568 124.5,105.5 Z"/></g>
<g><path style="opacity:1" fill="#fefefb" d="M 122.5,117.5 C 124.085,118.002 124.585,119.002 124,120.5C 122.961,119.756 122.461,118.756 122.5,117.5 Z"/></g>
<g><path style="opacity:1" fill="#fefefb" d="M 145.5,118.5 C 144.761,118.631 144.094,118.464 143.5,118C 144.437,117.308 145.103,117.475 145.5,118.5 Z"/></g>
<g><path style="opacity:1" fill="#fefffd" d="M 157.5,118.5 C 157.897,117.475 158.563,117.308 159.5,118C 158.906,118.464 158.239,118.631 157.5,118.5 Z"/></g>
<g><path style="opacity:1" fill="#fefffd" d="M 183.5,117.5 C 184.833,118.167 184.833,118.167 183.5,117.5 Z"/></g>
<g><path style="opacity:1" fill="#a3a3a4" d="M 52.5,120.5 C 56.97,119.514 61.6367,119.181 66.5,119.5C 66.5,120.5 66.5,121.5 66.5,122.5C 62.1464,120.652 57.4797,119.985 52.5,120.5 Z"/></g>
<g><path style="opacity:1" fill="#151516" d="M 93.5,136.5 C 93.5,136.833 93.5,137.167 93.5,137.5C 90.3752,138.479 87.0419,138.813 83.5,138.5C 82.6322,135.065 82.6322,131.731 83.5,128.5C 82.791,127.596 81.791,127.263 80.5,127.5C 80.5,136.167 80.5,144.833 80.5,153.5C 81.791,153.737 82.791,153.404 83.5,152.5C 83.5,149.167 83.5,145.833 83.5,142.5C 86.5,142.5 89.5,142.5 92.5,142.5C 92.5,147.833 92.5,153.167 92.5,158.5C 89.8184,161.178 86.4851,162.511 82.5,162.5C 79.7737,162.318 77.1071,161.818 74.5,161C 73.1772,160.184 72.5106,159.017 72.5,157.5C 71.6314,155.283 71.298,152.95 71.5,150.5C 71.5,142.167 71.5,133.833 71.5,125.5C 72.0697,121.761 74.2364,119.428 78,118.5C 80.9685,118.519 84.1352,118.686 87.5,119C 89.5873,119.792 91.4207,120.959 93,122.5C 93.4992,127.155 93.6658,131.821 93.5,136.5 Z"/></g>
<g><path style="opacity:1" fill="#ababab" d="M 117.5,123.5 C 117.5,122.5 117.5,121.5 117.5,120.5C 113.821,120.06 110.488,120.727 107.5,122.5C 107.5,121.5 107.5,120.5 107.5,119.5C 111.167,119.5 114.833,119.5 118.5,119.5C 118.768,121.099 118.434,122.432 117.5,123.5 Z"/></g>
<g><path style="opacity:1" fill="#f6f6b4" d="M 145.5,118.5 C 148.867,119.422 152.034,119.422 155,118.5C 156.269,119.905 156.769,121.571 156.5,123.5C 155.596,122.791 155.263,121.791 155.5,120.5C 152.167,120.5 148.833,120.5 145.5,120.5C 145.5,119.833 145.5,119.167 145.5,118.5 Z"/></g>
<g><path style="opacity:1" fill="#f5f4a4" d="M 183.5,120.5 C 175.5,120.5 167.5,120.5 159.5,120.5C 167.071,118.536 175.071,118.536 183.5,120.5 Z"/></g>
<g><path style="opacity:1" fill="#101011" d="M 40.5,121.5 C 40.5,121.833 40.5,122.167 40.5,122.5C 40.5,132.5 40.5,142.5 40.5,152.5C 42.8333,152.5 45.1667,152.5 47.5,152.5C 49.3189,141.978 50.9856,131.311 52.5,120.5C 57.4797,119.985 62.1464,120.652 66.5,122.5C 68.3037,131.4 69.3037,140.4 69.5,149.5C 69.5,150.167 69.8333,150.5 70.5,150.5C 70.5,153.833 70.5,157.167 70.5,160.5C 67.5,160.5 64.5,160.5 61.5,160.5C 61.5,158.833 61.5,157.167 61.5,155.5C 59.2188,155.077 57.5521,155.744 56.5,157.5C 55.596,158.209 55.2627,159.209 55.5,160.5C 47.5,160.5 39.5,160.5 31.5,160.5C 31.5,147.167 31.5,133.833 31.5,120.5C 34.7131,120.19 37.7131,120.523 40.5,121.5 Z"/></g>
<g><path style="opacity:1" fill="#0b0c0d" d="M 95.5,120.5 C 98.5,120.5 101.5,120.5 104.5,120.5C 104.063,125.361 104.563,130.028 106,134.5C 107.266,130.605 107.766,126.605 107.5,122.5C 110.488,120.727 113.821,120.06 117.5,120.5C 117.5,121.5 117.5,122.5 117.5,123.5C 117.05,129.126 116.05,134.626 114.5,140C 115.423,142.041 115.756,144.208 115.5,146.5C 115.42,149.781 116.087,152.781 117.5,155.5C 117.5,156.167 117.5,156.833 117.5,157.5C 117.5,158.5 117.5,159.5 117.5,160.5C 114.167,160.5 110.833,160.5 107.5,160.5C 106.612,157.946 106.279,155.279 106.5,152.5C 106.662,150.473 106.495,148.473 106,146.5C 105.667,146.833 105.333,147.167 105,147.5C 104.501,151.821 104.334,156.154 104.5,160.5C 101.5,160.5 98.5,160.5 95.5,160.5C 95.5,147.167 95.5,133.833 95.5,120.5 Z"/></g>
<g><path style="opacity:1" fill="#fbf7be" d="M 142.5,120.5 C 137.477,119.191 132.477,119.358 127.5,121C 125.93,122.397 124.596,123.897 123.5,125.5C 123.389,124.883 123.056,124.383 122.5,124C 126.002,119.951 130.502,118.118 136,118.5C 138.544,118.336 140.71,119.003 142.5,120.5 Z"/></g>
<g><path style="opacity:1" fill="#fefffd" d="M 121.5,121.5 C 122.833,122.167 122.833,122.167 121.5,121.5 Z"/></g>
<g><path style="opacity:1" fill="#fdfdfb" d="M 40.5,122.5 C 41.4938,131.986 41.8271,141.652 41.5,151.5C 43.7354,151.205 45.7354,151.539 47.5,152.5C 45.1667,152.5 42.8333,152.5 40.5,152.5C 40.5,142.5 40.5,132.5 40.5,122.5 Z"/></g>
<g><path style="opacity:1" fill="#fefefb" d="M 202.5,123.5 C 203.525,123.897 203.692,124.563 203,125.5C 202.536,124.906 202.369,124.239 202.5,123.5 Z"/></g>
<g><path style="opacity:1" fill="#101215" d="M 24.5,120.5 C 27.1878,121.024 28.6878,122.691 29,125.5C 29.6667,129.167 29.6667,132.833 29,136.5C 28.5348,137.931 27.7014,139.097 26.5,140C 27.056,140.383 27.3893,140.883 27.5,141.5C 28.3924,146.438 28.7257,151.438 28.5,156.5C 28.1667,158.833 26.8333,160.167 24.5,160.5C 18.8333,160.5 13.1667,160.5 7.5,160.5C 7.5,147.167 7.5,133.833 7.5,120.5C 13.1667,120.5 18.8333,120.5 24.5,120.5 Z"/></g>
<g><path style="opacity:1" fill="#656465" d="M 40.5,121.5 C 37.7131,120.523 34.7131,120.19 31.5,120.5C 31.5,133.833 31.5,147.167 31.5,160.5C 39.5,160.5 47.5,160.5 55.5,160.5C 55.2627,159.209 55.596,158.209 56.5,157.5C 56.5,158.833 56.5,160.167 56.5,161.5C 47.3316,161.97 38.3316,161.47 29.5,160C 29.8659,146.713 30.1993,133.213 30.5,119.5C 34.226,119.177 37.8927,119.511 41.5,120.5C 41.3764,121.107 41.0431,121.44 40.5,121.5 Z"/></g>
<g><path style="opacity:1" fill="#868586" d="M 95.5,120.5 C 95.5,120.167 95.5,119.833 95.5,119.5C 98.8333,119.5 102.167,119.5 105.5,119.5C 105.335,123.182 105.501,126.848 106,130.5C 106.183,127.635 106.683,124.969 107.5,122.5C 107.766,126.605 107.266,130.605 106,134.5C 104.563,130.028 104.063,125.361 104.5,120.5C 101.5,120.5 98.5,120.5 95.5,120.5 Z"/></g>
<g><path style="opacity:1" fill="#fefffd" d="M 206.5,129.5 C 207.833,130.167 207.833,130.167 206.5,129.5 Z"/></g>
<g><path style="opacity:1" fill="#c2c2c2" d="M 24.5,120.5 C 18.8333,120.5 13.1667,120.5 7.5,120.5C 7.5,133.833 7.5,147.167 7.5,160.5C 13.1667,160.5 18.8333,160.5 24.5,160.5C 18.69,161.49 12.69,161.823 6.5,161.5C 6.5,147.5 6.5,133.5 6.5,119.5C 12.69,119.177 18.69,119.51 24.5,120.5 Z"/></g>
<g><path style="opacity:1" fill="#d4d4d4" d="M 16.5,128.5 C 17.7479,129.334 18.4146,130.667 18.5,132.5C 18.1667,133.833 17.8333,135.167 17.5,136.5C 16.52,133.914 16.1866,131.247 16.5,128.5 Z"/></g>
<g><path style="opacity:1" fill="#f6f6f6" d="M 71.5,125.5 C 71.5,133.833 71.5,142.167 71.5,150.5C 71.1667,150.5 70.8333,150.5 70.5,150.5C 69.8333,150.5 69.5,150.167 69.5,149.5C 70.1667,141.5 70.8333,133.5 71.5,125.5 Z"/></g>
<g><path style="opacity:1" fill="#f6f2e2" d="M 145.5,121.5 C 146.371,124.003 147.037,126.67 147.5,129.5C 146.833,138.833 146.167,148.167 145.5,157.5C 145.5,150.833 145.5,144.167 145.5,137.5C 141.833,137.5 138.167,137.5 134.5,137.5C 135.03,142.887 135.03,148.22 134.5,153.5C 133.167,145.167 133.167,136.833 134.5,128.5C 135.474,130.743 135.808,133.076 135.5,135.5C 138.833,135.5 142.167,135.5 145.5,135.5C 145.769,131.069 145.436,126.735 144.5,122.5C 145.167,122.5 145.5,122.167 145.5,121.5 Z"/></g>
<g><path style="opacity:1" fill="#fefffd" d="M 206.5,133.5 C 207.833,134.167 207.833,134.167 206.5,133.5 Z"/></g>
<g><path style="opacity:1" fill="#a2a2a2" d="M 57.5,134.5 C 58.8001,136.223 59.4668,138.39 59.5,141C 59.1667,143.167 58.8333,145.333 58.5,147.5C 57.5078,143.217 57.1744,138.884 57.5,134.5 Z"/></g>
<g><path style="opacity:1" fill="#fefffd" d="M 149.5,140.5 C 148.833,141.167 148.833,141.167 149.5,140.5 Z"/></g>
<g><path style="opacity:1" fill="#6b6b6c" d="M 83.5,128.5 C 82.176,132.107 81.5093,136.107 81.5,140.5C 81.5093,144.893 82.176,148.893 83.5,152.5C 82.791,153.404 81.791,153.737 80.5,153.5C 80.5,144.833 80.5,136.167 80.5,127.5C 81.791,127.263 82.791,127.596 83.5,128.5 Z"/></g>
<g><path style="opacity:1" fill="#4a494a" d="M 83.5,142.5 C 86.6248,141.521 89.9581,141.187 93.5,141.5C 93.8222,147.358 93.4889,153.025 92.5,158.5C 92.5,153.167 92.5,147.833 92.5,142.5C 89.5,142.5 86.5,142.5 83.5,142.5 Z"/></g>
<g><path style="opacity:1" fill="#f0e92a" d="M 145.5,121.5 C 145.5,121.167 145.5,120.833 145.5,120.5C 148.833,120.5 152.167,120.5 155.5,120.5C 155.263,121.791 155.596,122.791 156.5,123.5C 157.29,124.609 157.79,125.942 158,127.5C 158.186,124.964 158.686,122.631 159.5,120.5C 167.5,120.5 175.5,120.5 183.5,120.5C 183.5,122.5 183.5,124.5 183.5,126.5C 183.351,129.607 183.851,132.607 185,135.5C 185.497,132.854 185.664,130.187 185.5,127.5C 185.5,126.833 185.5,126.167 185.5,125.5C 186.451,124.081 186.784,122.415 186.5,120.5C 190.833,120.5 195.167,120.5 199.5,120.5C 199.5,134.167 199.5,147.833 199.5,161.5C 197.5,161.5 195.5,161.5 193.5,161.5C 192.202,162.116 191.202,162.116 190.5,161.5C 190.666,154.159 190.5,146.826 190,139.5C 189.499,144.508 188.999,149.508 188.5,154.5C 188.5,155.5 188.5,156.5 188.5,157.5C 187.596,158.209 187.263,159.209 187.5,160.5C 185.435,160.517 183.435,160.85 181.5,161.5C 180.833,161.5 180.167,161.5 179.5,161.5C 178.994,156.121 178.161,150.787 177,145.5C 176.501,150.489 176.334,155.489 176.5,160.5C 174.167,160.5 171.833,160.5 169.5,160.5C 169.832,147.483 169.499,134.483 168.5,121.5C 167.571,122.689 167.238,124.022 167.5,125.5C 166.343,130.462 165.343,135.462 164.5,140.5C 163.596,141.209 163.263,142.209 163.5,143.5C 162.883,143.611 162.383,143.944 162,144.5C 161.501,150.157 161.334,155.824 161.5,161.5C 158.482,161.296 155.482,160.963 152.5,160.5C 152.819,155.637 152.486,150.97 151.5,146.5C 150.952,144.374 150.285,142.374 149.5,140.5C 148.674,136.864 148.008,133.197 147.5,129.5C 147.037,126.67 146.371,124.003 145.5,121.5 Z"/></g>
<g><path style="opacity:1" fill="#fdfef9" d="M 164.5,140.5 C 165.833,141.167 165.833,141.167 164.5,140.5 Z"/></g>
<g><path style="opacity:1" fill="#f9eeb2" d="M 183.5,126.5 C 184.167,126.833 184.833,127.167 185.5,127.5C 185.664,130.187 185.497,132.854 185,135.5C 183.851,132.607 183.351,129.607 183.5,126.5 Z"/></g>
<g><path style="opacity:1" fill="#f1f1f1" d="M 95.5,119.5 C 95.5,119.833 95.5,120.167 95.5,120.5C 95.5,133.833 95.5,147.167 95.5,160.5C 95.5,160.833 95.5,161.167 95.5,161.5C 94.8333,153.5 94.1667,145.5 93.5,137.5C 93.5,137.167 93.5,136.833 93.5,136.5C 94.1667,130.833 94.8333,125.167 95.5,119.5 Z"/></g>
<g><path style="opacity:1" fill="#f0e92a" d="M 142.5,120.5 C 143.833,120.5 144.5,121.167 144.5,122.5C 145.436,126.735 145.769,131.069 145.5,135.5C 142.167,135.5 138.833,135.5 135.5,135.5C 135.808,133.076 135.474,130.743 134.5,128.5C 133.167,136.833 133.167,145.167 134.5,153.5C 135.03,148.22 135.03,142.887 134.5,137.5C 138.167,137.5 141.833,137.5 145.5,137.5C 145.5,144.167 145.5,150.833 145.5,157.5C 144.094,157.973 143.427,158.973 143.5,160.5C 139.202,161.2 134.869,161.533 130.5,161.5C 128.435,161.483 126.435,161.15 124.5,160.5C 123.542,148.884 123.209,137.217 123.5,125.5C 124.596,123.897 125.93,122.397 127.5,121C 132.477,119.358 137.477,119.191 142.5,120.5 Z"/></g>
<g><path style="opacity:1" fill="#faf7c5" d="M 179.5,161.5 C 176.587,161.724 173.587,162.057 170.5,162.5C 169.5,162 168.5,161.5 167.5,161C 168.829,149.069 168.829,137.235 167.5,125.5C 167.238,124.022 167.571,122.689 168.5,121.5C 169.499,134.483 169.832,147.483 169.5,160.5C 171.833,160.5 174.167,160.5 176.5,160.5C 176.334,155.489 176.501,150.489 177,145.5C 178.161,150.787 178.994,156.121 179.5,161.5 Z"/></g>
<g><path style="opacity:1" fill="#e1e2e2" d="M 16.5,144.5 C 17.7647,145.514 18.4313,147.014 18.5,149C 18.1667,150.5 17.8333,152 17.5,153.5C 16.5159,150.572 16.1826,147.572 16.5,144.5 Z"/></g>
<g><path style="opacity:1" fill="#fefffd" d="M 148.5,147.5 C 149.525,147.897 149.692,148.563 149,149.5C 148.536,148.906 148.369,148.239 148.5,147.5 Z"/></g>
<g><path style="opacity:1" fill="#fbf9d1" d="M 163.5,143.5 C 162.831,149.593 162.498,155.926 162.5,162.5C 158.702,162.445 155.202,162.112 152,161.5C 151.501,156.511 151.334,151.511 151.5,146.5C 152.486,150.97 152.819,155.637 152.5,160.5C 155.482,160.963 158.482,161.296 161.5,161.5C 161.334,155.824 161.501,150.157 162,144.5C 162.383,143.944 162.883,143.611 163.5,143.5 Z"/></g>
<g><path style="opacity:1" fill="#f8f7b1" d="M 193.5,161.5 C 195.5,161.5 197.5,161.5 199.5,161.5C 199.5,147.833 199.5,134.167 199.5,120.5C 195.167,120.5 190.833,120.5 186.5,120.5C 186.784,122.415 186.451,124.081 185.5,125.5C 185.5,123.5 185.5,121.5 185.5,119.5C 190.43,119.803 195.263,119.469 200,118.5C 200.185,131.878 200.685,145.212 201.5,158.5C 200.846,160.115 200.346,161.782 200,163.5C 197.723,162.883 195.556,162.216 193.5,161.5 Z"/></g>
<g><path style="opacity:1" fill="#e6e6e6" d="M 27.5,141.5 C 28.1174,141.611 28.6174,141.944 29,142.5C 29.8151,147.352 29.6484,152.019 28.5,156.5C 28.7257,151.438 28.3924,146.438 27.5,141.5 Z"/></g>
<g><path style="opacity:1" fill="#f7f0c7" d="M 190.5,161.5 C 189.833,159.167 189.167,156.833 188.5,154.5C 188.999,149.508 189.499,144.508 190,139.5C 190.5,146.826 190.666,154.159 190.5,161.5 Z"/></g>
<g><path style="opacity:1" fill="#cdcdcd" d="M 115.5,146.5 C 116.913,149.219 117.58,152.219 117.5,155.5C 116.087,152.781 115.42,149.781 115.5,146.5 Z"/></g>
<g><path style="opacity:1" fill="#fefffd" d="M 206.5,152.5 C 207.833,153.167 207.833,153.167 206.5,152.5 Z"/></g>
<g><path style="opacity:1" fill="#fefffd" d="M 120.5,155.5 C 121.525,155.897 121.692,156.563 121,157.5C 120.536,156.906 120.369,156.239 120.5,155.5 Z"/></g>
<g><path style="opacity:1" fill="#fbf8e1" d="M 145.5,157.5 C 145.573,159.027 144.906,160.027 143.5,160.5C 143.427,158.973 144.094,157.973 145.5,157.5 Z"/></g>
<g><path style="opacity:1" fill="#fefffd" d="M 164.5,158.5 C 165.833,159.167 165.833,159.167 164.5,158.5 Z"/></g>
<g><path style="opacity:1" fill="#fefffd" d="M 124.5,160.5 C 124.253,162.975 123.587,162.975 122.5,160.5C 122.97,159.537 123.637,159.537 124.5,160.5 Z"/></g>
<g><path style="opacity:1" fill="#aeadae" d="M 70.5,150.5 C 70.8333,150.5 71.1667,150.5 71.5,150.5C 71.298,152.95 71.6314,155.283 72.5,157.5C 71.5655,158.568 71.2322,159.901 71.5,161.5C 68.2234,161.216 65.0567,161.549 62,162.5C 60.6814,160.75 60.1814,158.75 60.5,156.5C 59.0413,156.433 57.7079,156.766 56.5,157.5C 57.5521,155.744 59.2188,155.077 61.5,155.5C 61.5,157.167 61.5,158.833 61.5,160.5C 64.5,160.5 67.5,160.5 70.5,160.5C 70.5,157.167 70.5,153.833 70.5,150.5 Z"/></g>
<g><path style="opacity:1" fill="#939393" d="M 106.5,152.5 C 105.834,155.689 105.167,159.023 104.5,162.5C 101.325,161.701 98.3246,161.368 95.5,161.5C 95.5,161.167 95.5,160.833 95.5,160.5C 98.5,160.5 101.5,160.5 104.5,160.5C 104.334,156.154 104.501,151.821 105,147.5C 105.333,147.167 105.667,146.833 106,146.5C 106.495,148.473 106.662,150.473 106.5,152.5 Z"/></g>
<g><path style="opacity:1" fill="#a6a6a5" d="M 117.5,157.5 C 118.434,158.568 118.768,159.901 118.5,161.5C 114.957,162.263 111.457,162.596 108,162.5C 106.62,161.744 106.453,161.078 107.5,160.5C 110.833,160.5 114.167,160.5 117.5,160.5C 117.5,159.5 117.5,158.5 117.5,157.5 Z"/></g>
<g><path style="opacity:1" fill="#fcf8c1" d="M 188.5,157.5 C 188.769,159.429 188.269,161.095 187,162.5C 185.605,161.185 184.605,161.519 184,163.5C 183.005,162.934 182.172,162.267 181.5,161.5C 183.435,160.85 185.435,160.517 187.5,160.5C 187.263,159.209 187.596,158.209 188.5,157.5 Z"/></g>
<g><path style="opacity:1" fill="#fdfcf0" d="M 143.5,160.5 C 141.152,161.952 138.486,162.618 135.5,162.5C 133.631,162.493 131.964,162.16 130.5,161.5C 134.869,161.533 139.202,161.2 143.5,160.5 Z"/></g>
<g><path style="opacity:1" fill="#fefffd" d="M 25.5,162.5 C 26.8333,163.167 26.8333,163.167 25.5,162.5 Z"/></g>
<g><path style="opacity:1" fill="#fefffd" d="M 144.5,162.5 C 147.001,162.511 147.168,163.178 145,164.5C 144.536,163.906 144.369,163.239 144.5,162.5 Z"/></g>
<g><path style="opacity:1" fill="#fefffd" d="M 122.5,164.5 C 121.833,163.167 121.833,163.167 122.5,164.5 Z"/></g>
<g><path style="opacity:1" fill="#fefffd" d="M 177.5,163.5 C 178.833,164.167 178.833,164.167 177.5,163.5 Z"/></g>
<g><path style="opacity:1" fill="#fefffd" d="M 30.5,165.5 C 29.8333,164.167 29.8333,164.167 30.5,165.5 Z"/></g>
<g><path style="opacity:1" fill="#fefffd" d="M 122.5,164.5 C 123.239,164.369 123.906,164.536 124.5,165C 123.563,165.692 122.897,165.525 122.5,164.5 Z"/></g>
<g><path style="opacity:1" fill="#fefefc" d="M 30.5,165.5 C 31.2891,165.783 31.9558,166.283 32.5,167C 31.184,167.528 30.5173,167.028 30.5,165.5 Z"/></g>
<g><path style="opacity:1" fill="#fefffd" d="M 35.5,165.5 C 36.8333,166.167 36.8333,166.167 35.5,165.5 Z"/></g>
<g><path style="opacity:1" fill="#fefefb" d="M 39.5,165.5 C 40.7733,166.077 40.7733,166.743 39.5,167.5C 38.537,167.03 38.537,166.363 39.5,165.5 Z"/></g>
<g><path style="opacity:1" fill="#fefffd" d="M 55.5,165.5 C 56.8333,166.167 56.8333,166.167 55.5,165.5 Z"/></g>
<g><path style="opacity:1" fill="#fefffd" d="M 70.5,165.5 C 71.8333,166.167 71.8333,166.167 70.5,165.5 Z"/></g>
<g><path style="opacity:1" fill="#fefffd" d="M 75.5,165.5 C 76.8333,166.167 76.8333,166.167 75.5,165.5 Z"/></g>
<g><path style="opacity:1" fill="#fefffd" d="M 120.5,165.5 C 121.833,166.167 121.833,166.167 120.5,165.5 Z"/></g>
<g><path style="opacity:1" fill="#fefffd" d="M 125.5,165.5 C 126.525,165.897 126.692,166.563 126,167.5C 125.536,166.906 125.369,166.239 125.5,165.5 Z"/></g>
<g><path style="opacity:1" fill="#fefffd" d="M 23.5,166.5 C 24.8333,167.167 24.8333,167.167 23.5,166.5 Z"/></g>
<g><path style="opacity:1" fill="#fefffd" d="M 50.5,167.5 C 50.8966,166.475 51.5632,166.308 52.5,167C 51.9056,167.464 51.2389,167.631 50.5,167.5 Z"/></g>
<g><path style="opacity:1" fill="#fefffd" d="M 129.5,167.5 C 129.897,166.475 130.563,166.308 131.5,167C 130.906,167.464 130.239,167.631 129.5,167.5 Z"/></g>
<g><path style="opacity:1" fill="#fefffd" d="M 134.5,166.5 C 135.833,167.167 135.833,167.167 134.5,166.5 Z"/></g>
<g><path style="opacity:1" fill="#fefffd" d="M 167.5,166.5 C 168.833,167.167 168.833,167.167 167.5,166.5 Z"/></g>
<g><path style="opacity:1" fill="#fefffd" d="M 170.5,167.5 C 170.897,166.475 171.563,166.308 172.5,167C 171.906,167.464 171.239,167.631 170.5,167.5 Z"/></g>
<g><path style="opacity:1" fill="#fefffd" d="M 94.5,167.5 C 95.8333,168.167 95.8333,168.167 94.5,167.5 Z"/></g>
<g><path style="opacity:1" fill="#fefffd" d="M 23.5,168.5 C 24.8333,169.167 24.8333,169.167 23.5,168.5 Z"/></g>
<g><path style="opacity:1" fill="#fefefb" d="M 33.5,169.5 C 33.8966,168.475 34.5632,168.308 35.5,169C 34.9056,169.464 34.2389,169.631 33.5,169.5 Z"/></g>
<g><path style="opacity:1" fill="#fefffd" d="M 47.5,168.5 C 48.8333,169.167 48.8333,169.167 47.5,168.5 Z"/></g>
<g><path style="opacity:1" fill="#fefffd" d="M 53.5,169.5 C 53.8966,168.475 54.5632,168.308 55.5,169C 54.9056,169.464 54.2389,169.631 53.5,169.5 Z"/></g>
<g><path style="opacity:1" fill="#fefffd" d="M 64.5,168.5 C 65.8333,169.167 65.8333,169.167 64.5,168.5 Z"/></g>
<g><path style="opacity:1" fill="#fefffd" d="M 69.5,168.5 C 70.8333,169.167 70.8333,169.167 69.5,168.5 Z"/></g>
<g><path style="opacity:1" fill="#fefffd" d="M 73.5,168.5 C 74.8333,169.167 74.8333,169.167 73.5,168.5 Z"/></g>
<g><path style="opacity:1" fill="#fefffd" d="M 89.5,168.5 C 90.8333,169.167 90.8333,169.167 89.5,168.5 Z"/></g>
<g><path style="opacity:1" fill="#fefffd" d="M 130.5,168.5 C 131.833,169.167 131.833,169.167 130.5,168.5 Z"/></g>
<g><path style="opacity:1" fill="#fefffd" d="M 147.5,169.5 C 147.897,168.475 148.563,168.308 149.5,169C 148.906,169.464 148.239,169.631 147.5,169.5 Z"/></g>
<g><path style="opacity:1" fill="#fefffd" d="M 154.5,168.5 C 155.833,169.167 155.833,169.167 154.5,168.5 Z"/></g>
<g><path style="opacity:1" fill="#fefefb" d="M 165.5,169.5 C 165.897,168.475 166.563,168.308 167.5,169C 166.906,169.464 166.239,169.631 165.5,169.5 Z"/></g>
<g><path style="opacity:1" fill="#fefffd" d="M 78.5,169.5 C 79.8333,170.167 79.8333,170.167 78.5,169.5 Z"/></g>
<g><path style="opacity:1" fill="#fdfef9" d="M 168.5,170.5 C 168.897,169.475 169.563,169.308 170.5,170C 169.906,170.464 169.239,170.631 168.5,170.5 Z"/></g>
<g><path style="opacity:1" fill="#fdfceb" d="M 59.5,171.5 C 57.8235,172.183 57.1568,173.517 57.5,175.5C 56.5489,174.081 56.2155,172.415 56.5,170.5C 57.791,170.263 58.791,170.596 59.5,171.5 Z"/></g>
<g><path style="opacity:1" fill="#fdfbe3" d="M 73.5,171.5 C 74.5676,170.566 75.901,170.232 77.5,170.5C 77.5,171.5 77.5,172.5 77.5,173.5C 76.5326,172.194 75.1993,171.527 73.5,171.5 Z"/></g>
<g><path style="opacity:1" fill="#ddd92e" d="M 31.5,171.5 C 31.8016,174.059 31.4682,176.393 30.5,178.5C 30.7845,176.585 30.4511,174.919 29.5,173.5C 28.8333,173.5 28.1667,173.5 27.5,173.5C 28.1834,171.824 29.5168,171.157 31.5,171.5 Z"/></g>
<g><path style="opacity:1" fill="#fcf9e2" d="M 95.5,173.5 C 94.788,172.261 93.788,171.761 92.5,172C 91.8828,174.277 91.2161,176.444 90.5,178.5C 89.7207,175.925 89.8873,173.592 91,171.5C 92.3561,170.62 93.8561,170.286 95.5,170.5C 95.5,171.5 95.5,172.5 95.5,173.5 Z"/></g>
<g><path style="opacity:1" fill="#fdfcec" d="M 172.5,171.5 C 174.288,170.378 176.288,170.211 178.5,171C 179.252,171.671 179.586,172.504 179.5,173.5C 177.521,171.832 175.188,171.166 172.5,171.5 Z"/></g>
<g><path style="opacity:1" fill="#868686" d="M 109.5,171.5 C 108.167,171.5 106.833,171.5 105.5,171.5C 105.5,172.5 105.5,173.5 105.5,174.5C 105.5,175.167 105.5,175.833 105.5,176.5C 104.732,175.737 104.232,174.737 104,173.5C 103.506,175.134 103.34,176.801 103.5,178.5C 101.325,172.348 103.325,170.015 109.5,171.5 Z"/></g>
<g><path style="opacity:1" fill="#585758" d="M 109.5,171.5 C 111.509,173.378 111.842,175.544 110.5,178C 109.551,178.617 108.718,178.451 108,177.5C 107.667,176.167 107.333,174.833 107,173.5C 106.617,174.056 106.117,174.389 105.5,174.5C 105.5,173.5 105.5,172.5 105.5,171.5C 106.833,171.5 108.167,171.5 109.5,171.5 Z"/></g>
<g><path style="opacity:1" fill="#f7f2c3" d="M 31.5,171.5 C 33.3444,172.915 34.0111,174.581 33.5,176.5C 32.9017,177.795 32.4017,179.128 32,180.5C 31.2828,179.956 30.7828,179.289 30.5,178.5C 31.4682,176.393 31.8016,174.059 31.5,171.5 Z"/></g>
<g><path style="opacity:1" fill="#f9f5c6" d="M 38.5,181.5 C 38.5569,182.609 38.8902,183.609 39.5,184.5C 37.631,186.635 36.9644,189.302 37.5,192.5C 36.0222,192.762 34.6888,192.429 33.5,191.5C 34.5443,189.232 34.711,186.899 34,184.5C 33.7216,185.416 33.2216,186.082 32.5,186.5C 32.1075,184.716 31.4408,183.05 30.5,181.5C 31.7498,181.577 32.5831,182.244 33,183.5C 34.6282,179.675 34.7948,175.842 33.5,172C 34.5634,170.812 35.8967,170.312 37.5,170.5C 37.185,174.371 37.5184,178.038 38.5,181.5 Z"/></g>
<g><path style="opacity:1" fill="#faf7d9" d="M 90.5,181.5 C 89.9947,184.841 89.8281,188.174 90,191.5C 91.1729,188.59 93.0062,187.923 95.5,189.5C 92.7081,189.452 90.8747,190.785 90,193.5C 89.3333,192.833 88.6667,192.167 88,191.5C 86.1722,192.752 84.3388,192.752 82.5,191.5C 82.5,184.833 82.5,178.167 82.5,171.5C 83.1667,171.5 83.8333,171.5 84.5,171.5C 85.8488,170.203 87.1821,170.37 88.5,172C 87.8516,178.24 87.6849,184.407 88,190.5C 88.4061,187.258 89.2395,184.258 90.5,181.5 Z"/></g>
<g><path style="opacity:1" fill="#f1ea43" d="M 139.5,171.5 C 139.5,172.167 139.5,172.833 139.5,173.5C 138.833,173.5 138.167,173.5 137.5,173.5C 136.833,179.346 136.167,185.346 135.5,191.5C 134.833,185.346 134.167,179.346 133.5,173.5C 132.833,173.5 132.167,173.5 131.5,173.5C 131.5,172.833 131.5,172.167 131.5,171.5C 134.167,170.167 136.833,170.167 139.5,171.5 Z"/></g>
<g><path style="opacity:1" fill="#eae63f" d="M 95.5,173.5 C 95.5,174.167 95.5,174.833 95.5,175.5C 95.2053,177.735 95.5386,179.735 96.5,181.5C 96.9072,184.898 97.9072,188.064 99.5,191C 98.4366,192.188 97.1033,192.688 95.5,192.5C 95.5,191.5 95.5,190.5 95.5,189.5C 93.0062,187.923 91.1729,188.59 90,191.5C 89.8281,188.174 89.9947,184.841 90.5,181.5C 90.5,180.5 90.5,179.5 90.5,178.5C 91.2161,176.444 91.8828,174.277 92.5,172C 93.788,171.761 94.788,172.261 95.5,173.5 Z"/></g>
<g><path style="opacity:1" fill="#fefffd" d="M 113.5,174.5 C 114.833,175.167 114.833,175.167 113.5,174.5 Z"/></g>
<g><path style="opacity:1" fill="#fefefb" d="M 157.5,173.5 C 156.233,175.039 155.233,176.706 154.5,178.5C 154.5,176.833 154.5,175.167 154.5,173.5C 155.5,173.5 156.5,173.5 157.5,173.5 Z"/></g>
<g><path style="opacity:1" fill="#faf8d0" d="M 167.5,171.5 C 165.533,171.261 163.699,171.594 162,172.5C 161.503,175.146 161.336,177.813 161.5,180.5C 160.362,177.696 160.195,174.696 161,171.5C 163.274,170.189 165.44,170.189 167.5,171.5 Z"/></g>
<g><path style="opacity:1" fill="#f0e958" d="M 65.5,171.5 C 66.2653,184.659 67.5986,184.659 69.5,171.5C 69.56,170.957 69.8933,170.624 70.5,170.5C 71.4952,176.551 71.1619,182.551 69.5,188.5C 70.752,192.712 69.4187,194.046 65.5,192.5C 65.5,190.833 65.5,189.167 65.5,187.5C 65.8186,185.25 65.3186,183.25 64,181.5C 63.5357,182.094 63.369,182.761 63.5,183.5C 63.5,184.167 63.5,184.833 63.5,185.5C 62.5386,187.265 62.2053,189.265 62.5,191.5C 61.5,191.5 60.5,191.5 59.5,191.5C 59.7947,189.265 59.4614,187.265 58.5,185.5C 57.5863,182.272 57.2529,178.939 57.5,175.5C 57.1568,173.517 57.8235,172.183 59.5,171.5C 60.4227,175.064 60.756,178.731 60.5,182.5C 60.3932,184.379 60.8932,184.712 62,183.5C 62.4955,181.527 62.6621,179.527 62.5,177.5C 62.7135,175.856 62.3802,174.356 61.5,173C 62.4903,170.79 63.8236,170.29 65.5,171.5 Z"/></g>
<g><path style="opacity:1" fill="#f7f4ec" d="M 65.5,171.5 C 66.8333,171.5 68.1667,171.5 69.5,171.5C 67.5986,184.659 66.2653,184.659 65.5,171.5 Z"/></g>
<g><path style="opacity:1" fill="#ece917" d="M 84.5,171.5 C 85.8197,174.428 86.4864,177.761 86.5,181.5C 86.1667,184.833 85.8333,188.167 85.5,191.5C 84.5033,184.866 84.17,178.2 84.5,171.5 Z"/></g>
<g><path style="opacity:1" fill="#f6eeae" d="M 43.5,179.5 C 42.8826,179.389 42.3826,179.056 42,178.5C 41.6667,176.167 41.3333,173.833 41,171.5C 40.8171,174.365 40.3171,177.031 39.5,179.5C 39.5,176.5 39.5,173.5 39.5,170.5C 40.5,170.5 41.5,170.5 42.5,170.5C 42.3677,173.57 42.701,176.57 43.5,179.5 Z"/></g>
<g><path style="opacity:1" fill="#e8e444" d="M 43.5,179.5 C 44.7574,180.623 44.4241,181.289 42.5,181.5C 41.5233,184.287 41.19,187.287 41.5,190.5C 42.8734,190.343 44.2068,190.51 45.5,191C 43.5273,191.495 41.5273,191.662 39.5,191.5C 39.1501,189.374 39.1501,187.041 39.5,184.5C 38.8902,183.609 38.5569,182.609 38.5,181.5C 39.3382,181.158 39.6716,180.492 39.5,179.5C 40.3171,177.031 40.8171,174.365 41,171.5C 41.3333,173.833 41.6667,176.167 42,178.5C 42.3826,179.056 42.8826,179.389 43.5,179.5 Z"/></g>
<g><path style="opacity:1" fill="#fefffd" d="M 44.5,176.5 C 45.8333,177.167 45.8333,177.167 44.5,176.5 Z"/></g>
<g><path style="opacity:1" fill="#fefffd" d="M 98.5,176.5 C 99.525,176.897 99.6917,177.563 99,178.5C 98.5357,177.906 98.369,177.239 98.5,176.5 Z"/></g>
<g><path style="opacity:1" fill="#f8f5eb" d="M 125.5,171.5 C 126.167,171.5 126.833,171.5 127.5,171.5C 128.167,198.167 128.833,198.167 129.5,171.5C 130.167,171.5 130.833,171.5 131.5,171.5C 131.5,172.167 131.5,172.833 131.5,173.5C 130.672,179.653 130.172,185.987 130,192.5C 129.259,193.641 128.425,193.641 127.5,192.5C 126.833,189.023 126.166,185.689 125.5,182.5C 124.817,180.824 123.483,180.157 121.5,180.5C 121.5,178.167 121.5,175.833 121.5,173.5C 123.483,173.843 124.817,173.176 125.5,171.5 Z"/></g>
<g><path style="opacity:1" fill="#fdfbe6" d="M 133.5,173.5 C 134.167,179.346 134.833,185.346 135.5,191.5C 136.167,185.346 136.833,179.346 137.5,173.5C 137.5,179.833 137.5,186.167 137.5,192.5C 135.571,192.769 133.905,192.269 132.5,191C 133.475,185.259 133.808,179.425 133.5,173.5 Z"/></g>
<g><path style="opacity:1" fill="#fefffd" d="M 158.5,176.5 C 159.833,177.167 159.833,177.167 158.5,176.5 Z"/></g>
<g><path style="opacity:1" fill="#fdfcef" d="M 167.5,171.5 C 168.725,172.152 169.392,173.319 169.5,175C 169.486,176.385 169.152,177.551 168.5,178.5C 168.702,176.05 168.369,173.717 167.5,171.5 Z"/></g>
<g><path style="opacity:1" fill="#faf9de" d="M 29.5,173.5 C 30.4511,174.919 30.7845,176.585 30.5,178.5C 28.6275,177.104 28.2942,175.437 29.5,173.5 Z"/></g>
<g><path style="opacity:1" fill="#f8f4c1" d="M 31.5,171.5 C 29.5168,171.157 28.1834,171.824 27.5,173.5C 27.1658,176.188 27.8325,178.521 29.5,180.5C 28.5041,180.586 27.6708,180.252 27,179.5C 26.6667,177.167 26.3333,174.833 26,172.5C 25.6174,173.056 25.1174,173.389 24.5,173.5C 23.0474,172.175 23.3808,171.342 25.5,171C 27.7116,170.211 29.7116,170.378 31.5,171.5 Z"/></g>
<g><path style="opacity:1" fill="#fbf7cb" d="M 95.5,175.5 C 96.224,177.218 96.8906,179.052 97.5,181C 97.2716,181.399 96.9382,181.565 96.5,181.5C 95.5386,179.735 95.2053,177.735 95.5,175.5 Z"/></g>
<g><path style="opacity:1" fill="#ede91b" d="M 129.5,171.5 C 128.833,198.167 128.167,198.167 127.5,171.5C 128.167,170.167 128.833,170.167 129.5,171.5 Z"/></g>
<g><path style="opacity:1" fill="#fdfcf3" d="M 154.5,179.5 C 156.167,179.5 157.833,179.5 159.5,179.5C 159.5,180.5 159.5,181.5 159.5,182.5C 159.167,182.5 158.833,182.5 158.5,182.5C 157.552,181.022 156.219,180.022 154.5,179.5 Z"/></g>
<g><path style="opacity:1" fill="#fefefc" d="M 181.5,181.5 C 179.621,181.607 179.288,181.107 180.5,180C 183.875,179.368 184.209,179.868 181.5,181.5 Z"/></g>
<g><path style="opacity:1" fill="#fefffd" d="M 99.5,180.5 C 100.833,181.167 100.833,181.167 99.5,180.5 Z"/></g>
<g><path style="opacity:1" fill="#7f7f7f" d="M 111.5,184.5 C 111.631,183.761 111.464,183.094 111,182.5C 110.023,183.774 109.189,183.774 108.5,182.5C 109.659,181.544 110.826,180.544 112,179.5C 112.5,179.833 113,180.167 113.5,180.5C 113.006,182.026 112.339,183.359 111.5,184.5 Z"/></g>
<g><path style="opacity:1" fill="#e1e022" d="M 125.5,171.5 C 124.817,173.176 123.483,173.843 121.5,173.5C 121.5,175.833 121.5,178.167 121.5,180.5C 123.483,180.157 124.817,180.824 125.5,182.5C 123.517,182.157 122.183,182.824 121.5,184.5C 121.5,186.833 121.5,189.167 121.5,191.5C 119.541,185.25 118.874,178.584 119.5,171.5C 121.5,171.5 123.5,171.5 125.5,171.5 Z"/></g>
<g><path style="opacity:1" fill="#f1ea33" d="M 145.5,176.5 C 145.687,178.564 146.187,180.564 147,182.5C 147.49,181.207 147.657,179.873 147.5,178.5C 147.5,176.167 147.5,173.833 147.5,171.5C 148.82,174.428 149.486,177.761 149.5,181.5C 149.167,184.833 148.833,188.167 148.5,191.5C 147.818,190.757 147.151,190.091 146.5,189.5C 145.566,188.432 145.232,187.099 145.5,185.5C 145.162,183.146 144.662,180.813 144,178.5C 143.506,180.134 143.34,181.801 143.5,183.5C 143.5,186.167 143.5,188.833 143.5,191.5C 141.541,185.25 140.874,178.584 141.5,171.5C 142.542,170.209 143.708,170.209 145,171.5C 145.494,173.134 145.66,174.801 145.5,176.5 Z"/></g>
<g><path style="opacity:1" fill="#fdf6dc" d="M 145.5,176.5 C 146.167,177.167 146.833,177.833 147.5,178.5C 147.657,179.873 147.49,181.207 147,182.5C 146.187,180.564 145.687,178.564 145.5,176.5 Z"/></g>
<g><path style="opacity:1" fill="#faf2d3" d="M 145.5,185.5 C 144.833,184.833 144.167,184.167 143.5,183.5C 143.34,181.801 143.506,180.134 144,178.5C 144.662,180.813 145.162,183.146 145.5,185.5 Z"/></g>
<g><path style="opacity:1" fill="#fefffd" d="M 168.5,180.5 C 169.833,181.167 169.833,181.167 168.5,180.5 Z"/></g>
<g><path style="opacity:1" fill="#f6f177" d="M 172.5,171.5 C 175.188,171.166 177.521,171.832 179.5,173.5C 179.5,175.5 179.5,177.5 179.5,179.5C 176.538,179.883 175.538,178.883 176.5,176.5C 175.86,173.352 174.86,173.019 173.5,175.5C 174.098,176.795 174.598,178.128 175,179.5C 176.955,180.453 178.622,181.787 180,183.5C 180.74,184.749 180.573,185.749 179.5,186.5C 179.179,184.952 178.179,184.285 176.5,184.5C 176.167,184.5 175.833,184.5 175.5,184.5C 174.492,182.661 172.992,181.328 171,180.5C 170.833,179 170.667,177.5 170.5,176C 170.569,174.014 171.235,172.514 172.5,171.5 Z"/></g>
<g><path style="opacity:1" fill="#fefffd" d="M 24.5,181.5 C 23.8333,182.167 23.8333,182.167 24.5,181.5 Z"/></g>
<g><path style="opacity:1" fill="#e6df13" d="M 35.5,171.5 C 36.654,177.987 36.8206,184.654 36,191.5C 34.7501,184.929 34.5834,178.262 35.5,171.5 Z"/></g>
<g><path style="opacity:1" fill="#fbf9da" d="M 62.5,177.5 C 62.6621,179.527 62.4955,181.527 62,183.5C 60.8932,184.712 60.3932,184.379 60.5,182.5C 61.1667,180.833 61.8333,179.167 62.5,177.5 Z"/></g>
<g><path style="opacity:1" fill="#272628" d="M 105.5,176.5 C 107.008,178.181 108.008,180.181 108.5,182.5C 109.189,183.774 110.023,183.774 111,182.5C 111.464,183.094 111.631,183.761 111.5,184.5C 111.629,186.216 111.962,187.883 112.5,189.5C 112.631,190.239 112.464,190.906 112,191.5C 110.807,189.503 109.307,187.836 107.5,186.5C 107.372,184.91 106.705,183.577 105.5,182.5C 104.526,184.743 104.192,187.076 104.5,189.5C 105.263,190.268 106.263,190.768 107.5,191C 105.866,191.494 104.199,191.66 102.5,191.5C 102.044,187.398 102.711,183.565 104.5,180C 104.43,179.235 104.097,178.735 103.5,178.5C 103.34,176.801 103.506,175.134 104,173.5C 104.232,174.737 104.732,175.737 105.5,176.5 Z"/></g>
<g><path style="opacity:1" fill="#fcf3e0" d="M 92.5,178.5 C 94.3795,180.915 94.7128,183.582 93.5,186.5C 92.52,183.914 92.1866,181.247 92.5,178.5 Z"/></g>
<g><path style="opacity:1" fill="#fcfcf3" d="M 125.5,182.5 C 124.329,183.345 122.995,184.011 121.5,184.5C 122.183,182.824 123.517,182.157 125.5,182.5 Z"/></g>
<g><path style="opacity:1" fill="#fefdf7" d="M 181.5,181.5 C 182.525,181.897 182.692,182.563 182,183.5C 181.536,182.906 181.369,182.239 181.5,181.5 Z"/></g>
<g><path style="opacity:1" fill="#e8e32f" d="M 53.5,171.5 C 55.4563,177.412 56.1229,183.745 55.5,190.5C 52.9976,191.779 50.4976,191.779 48,190.5C 47.3333,184.833 47.3333,179.167 48,173.5C 49.4443,171.845 51.2776,171.178 53.5,171.5 Z"/></g>
<g><path style="opacity:1" fill="#faf6e2" d="M 49.5,173.5 C 50.8333,173.5 52.1667,173.5 53.5,173.5C 53.5,178.833 53.5,184.167 53.5,189.5C 52.1667,189.5 50.8333,189.5 49.5,189.5C 49.5,184.167 49.5,178.833 49.5,173.5 Z"/></g>
<g><path style="opacity:1" fill="#f9f8d2" d="M 65.5,187.5 C 64.8333,186.167 64.1667,184.833 63.5,183.5C 63.369,182.761 63.5357,182.094 64,181.5C 65.3186,183.25 65.8186,185.25 65.5,187.5 Z"/></g>
<g><path style="opacity:1" fill="#f3eb49" d="M 82.5,171.5 C 82.5,178.167 82.5,184.833 82.5,191.5C 80.8007,191.473 79.4674,190.806 78.5,189.5C 77.6993,187.958 77.366,186.292 77.5,184.5C 77.313,182.436 76.813,180.436 76,178.5C 75.8275,182.871 75.3275,187.204 74.5,191.5C 73.7025,191.043 73.3691,190.376 73.5,189.5C 72.1943,183.401 72.1943,177.401 73.5,171.5C 75.1993,171.527 76.5326,172.194 77.5,173.5C 78.3414,175.379 78.6747,177.379 78.5,179.5C 78.7086,180.922 79.2086,182.255 80,183.5C 80.4988,179.514 80.6655,175.514 80.5,171.5C 81.1667,170.167 81.8333,170.167 82.5,171.5 Z"/></g>
<g><path style="opacity:1" fill="#fcf8e2" d="M 80.5,171.5 C 80.6655,175.514 80.4988,179.514 80,183.5C 79.2086,182.255 78.7086,180.922 78.5,179.5C 79.1667,176.833 79.8333,174.167 80.5,171.5 Z"/></g>
<g><path style="opacity:1" fill="#fcfae4" d="M 77.5,184.5 C 76.8343,187.028 76.1676,189.694 75.5,192.5C 73.8767,193.476 72.5433,192.976 71.5,191C 72.0442,190.283 72.7109,189.783 73.5,189.5C 73.3691,190.376 73.7025,191.043 74.5,191.5C 75.3275,187.204 75.8275,182.871 76,178.5C 76.813,180.436 77.313,182.436 77.5,184.5 Z"/></g>
<g><path style="opacity:1" fill="#fbfade" d="M 139.5,171.5 C 140.167,171.5 140.833,171.5 141.5,171.5C 140.874,178.584 141.541,185.25 143.5,191.5C 142.992,193.233 142.159,193.566 141,192.5C 140.828,185.987 140.328,179.653 139.5,173.5C 139.5,172.833 139.5,172.167 139.5,171.5 Z"/></g>
<g><path style="opacity:1" fill="#fbf9d1" d="M 27.5,182.5 C 28.4959,182.414 29.3292,182.748 30,183.5C 30.7891,185.712 30.6225,187.712 29.5,189.5C 29.8342,186.812 29.1675,184.479 27.5,182.5 Z"/></g>
<g><path style="opacity:1" fill="#a2a1a2" d="M 103.5,178.5 C 104.097,178.735 104.43,179.235 104.5,180C 102.711,183.565 102.044,187.398 102.5,191.5C 101.039,187.095 101.372,182.761 103.5,178.5 Z"/></g>
<g><path style="opacity:1" fill="#eeeeed" d="M 107.5,186.5 C 107.5,187.5 107.5,188.5 107.5,189.5C 106.5,189.5 105.5,189.5 104.5,189.5C 104.192,187.076 104.526,184.743 105.5,182.5C 106.705,183.577 107.372,184.91 107.5,186.5 Z"/></g>
<g><path style="opacity:1" fill="#fbf8dc" d="M 26.5,184.5 C 24.6921,185.918 24.0254,187.918 24.5,190.5C 23.5318,188.393 23.1984,186.059 23.5,183.5C 24.791,183.263 25.791,183.596 26.5,184.5 Z"/></g>
<g><path style="opacity:1" fill="#f1ea3c" d="M 157.5,173.5 C 156.5,173.5 155.5,173.5 154.5,173.5C 154.5,175.167 154.5,176.833 154.5,178.5C 154.5,178.833 154.5,179.167 154.5,179.5C 156.219,180.022 157.552,181.022 158.5,182.5C 157.167,182.5 155.833,182.5 154.5,182.5C 154.5,184.833 154.5,187.167 154.5,189.5C 155.833,189.5 157.167,189.5 158.5,189.5C 157.082,191.308 155.082,191.975 152.5,191.5C 152.5,184.833 152.5,178.167 152.5,171.5C 154.288,170.378 156.288,170.211 158.5,171C 159.883,172.461 159.549,173.294 157.5,173.5 Z"/></g>
<g><path style="opacity:1" fill="#f3eb49" d="M 167.5,171.5 C 168.369,173.717 168.702,176.05 168.5,178.5C 167.811,179.774 166.977,179.774 166,178.5C 165.383,177.551 165.549,176.718 166.5,176C 165.151,172.922 164.151,172.922 163.5,176C 163.931,178.932 165.598,180.766 168.5,181.5C 168.5,181.833 168.5,182.167 168.5,182.5C 168.5,185.5 168.5,188.5 168.5,191.5C 166.167,191.5 163.833,191.5 161.5,191.5C 161.007,189.194 160.674,186.861 160.5,184.5C 161.5,184.5 162.5,184.5 163.5,184.5C 163.5,186.167 163.5,187.833 163.5,189.5C 164.5,189.5 165.5,189.5 166.5,189.5C 166.975,186.918 166.308,184.918 164.5,183.5C 164.167,183.5 163.833,183.5 163.5,183.5C 162.833,182.5 162.167,181.5 161.5,180.5C 161.336,177.813 161.503,175.146 162,172.5C 163.699,171.594 165.533,171.261 167.5,171.5 Z"/></g>
<g><path style="opacity:1" fill="#ebe652" d="M 29.5,180.5 C 30.1667,180.5 30.5,180.833 30.5,181.5C 31.4408,183.05 32.1075,184.716 32.5,186.5C 33.4054,187.964 33.4054,189.298 32.5,190.5C 29.8333,191.833 27.1667,191.833 24.5,190.5C 24.0254,187.918 24.6921,185.918 26.5,184.5C 27.4054,185.702 27.4054,187.036 26.5,188.5C 27.221,190.382 28.221,190.715 29.5,189.5C 30.6225,187.712 30.7891,185.712 30,183.5C 29.3292,182.748 28.4959,182.414 27.5,182.5C 26.391,182.443 25.391,182.11 24.5,181.5C 23.3433,178.693 23.3433,176.026 24.5,173.5C 25.1174,173.389 25.6174,173.056 26,172.5C 26.3333,174.833 26.6667,177.167 27,179.5C 27.6708,180.252 28.5041,180.586 29.5,180.5 Z"/></g>
<g><path style="opacity:1" fill="#f8f5bc" d="M 53.5,171.5 C 51.2776,171.178 49.4443,171.845 48,173.5C 47.3333,179.167 47.3333,184.833 48,190.5C 50.4976,191.779 52.9976,191.779 55.5,190.5C 54.6661,191.748 53.3328,192.415 51.5,192.5C 47.4567,192.369 43.4567,192.036 39.5,191.5C 41.5273,191.662 43.5273,191.495 45.5,191C 44.2068,190.51 42.8734,190.343 41.5,190.5C 41.19,187.287 41.5233,184.287 42.5,181.5C 42.5,184.167 42.5,186.833 42.5,189.5C 43.8333,189.5 45.1667,189.5 46.5,189.5C 46.3339,183.824 46.5006,178.157 47,172.5C 49.0164,170.392 51.1831,170.058 53.5,171.5 Z"/></g>
<g><path style="opacity:1" fill="#fbf9d6" d="M 147.5,171.5 C 148.209,170.596 149.209,170.263 150.5,170.5C 150.367,173.925 151.033,174.258 152.5,171.5C 152.5,178.167 152.5,184.833 152.5,191.5C 155.082,191.975 157.082,191.308 158.5,189.5C 158.833,189.5 159.167,189.5 159.5,189.5C 159.5,190.5 159.5,191.5 159.5,192.5C 156.833,192.5 154.167,192.5 151.5,192.5C 151.333,168.509 150.833,168.509 150,192.5C 148.887,193.711 147.72,193.711 146.5,192.5C 145.438,191.575 145.438,190.575 146.5,189.5C 147.151,190.091 147.818,190.757 148.5,191.5C 148.833,188.167 149.167,184.833 149.5,181.5C 149.486,177.761 148.82,174.428 147.5,171.5 Z"/></g>
<g><path style="opacity:1" fill="#faf9ed" d="M 164.5,183.5 C 166.308,184.918 166.975,186.918 166.5,189.5C 165.5,189.5 164.5,189.5 163.5,189.5C 163.5,187.833 163.5,186.167 163.5,184.5C 164.167,184.5 164.5,184.167 164.5,183.5 Z"/></g>
<g><path style="opacity:1" fill="#fbfad9" d="M 168.5,182.5 C 169.268,183.263 169.768,184.263 170,185.5C 170.924,183.505 172.09,183.172 173.5,184.5C 171.656,186.279 170.99,188.612 171.5,191.5C 173.833,191.5 176.167,191.5 178.5,191.5C 176.052,192.473 173.385,192.806 170.5,192.5C 170.66,190.801 170.494,189.134 170,187.5C 169.79,189.058 169.29,190.391 168.5,191.5C 168.5,188.5 168.5,185.5 168.5,182.5 Z"/></g>
<g><path style="opacity:1" fill="#f8f7e6" d="M 158.5,182.5 C 158.833,183.833 159.167,183.833 159.5,182.5C 160.833,182.833 162.167,183.167 163.5,183.5C 163.5,183.833 163.5,184.167 163.5,184.5C 162.5,184.5 161.5,184.5 160.5,184.5C 160.674,186.861 161.007,189.194 161.5,191.5C 163.833,191.5 166.167,191.5 168.5,191.5C 166.052,192.473 163.385,192.806 160.5,192.5C 160.737,191.209 160.404,190.209 159.5,189.5C 159.167,188.167 158.833,188.167 158.5,189.5C 157.167,189.5 155.833,189.5 154.5,189.5C 154.5,187.167 154.5,184.833 154.5,182.5C 155.833,182.5 157.167,182.5 158.5,182.5 Z"/></g>
<g><path style="opacity:1" fill="#eeea2e" d="M 173.5,184.5 C 173.5,186.167 173.5,187.833 173.5,189.5C 174.5,189.5 175.5,189.5 176.5,189.5C 176.5,188.167 176.5,186.833 176.5,185.5C 176.5,185.167 176.5,184.833 176.5,184.5C 178.179,184.285 179.179,184.952 179.5,186.5C 179.784,188.415 179.451,190.081 178.5,191.5C 176.167,191.5 173.833,191.5 171.5,191.5C 170.99,188.612 171.656,186.279 173.5,184.5 Z"/></g>
<g><path style="opacity:1" fill="#f5f4f3" d="M 173.5,184.5 C 174.167,184.5 174.833,184.5 175.5,184.5C 175.5,185.167 175.833,185.5 176.5,185.5C 176.5,186.833 176.5,188.167 176.5,189.5C 175.5,189.5 174.5,189.5 173.5,189.5C 173.5,187.833 173.5,186.167 173.5,184.5 Z"/></g>
<g><path style="opacity:1" fill="#fcf9e9" d="M 26.5,188.5 C 27.609,188.557 28.609,188.89 29.5,189.5C 28.221,190.715 27.221,190.382 26.5,188.5 Z"/></g>
<g><path style="opacity:1" fill="#696969" d="M 107.5,186.5 C 109.307,187.836 110.807,189.503 112,191.5C 112.464,190.906 112.631,190.239 112.5,189.5C 114.529,191.02 114.529,192.02 112.5,192.5C 111.353,192.182 110.519,191.516 110,190.5C 107.643,192.646 105.143,192.979 102.5,191.5C 104.199,191.66 105.866,191.494 107.5,191C 106.263,190.768 105.263,190.268 104.5,189.5C 105.5,189.5 106.5,189.5 107.5,189.5C 107.5,188.5 107.5,187.5 107.5,186.5 Z"/></g>
<g><path style="opacity:1" fill="#f5f4d9" d="M 125.5,171.5 C 123.5,171.5 121.5,171.5 119.5,171.5C 118.874,178.584 119.541,185.25 121.5,191.5C 121.631,192.239 121.464,192.906 121,193.5C 119.5,192.667 118.333,191.5 117.5,190C 118.833,184.333 118.833,178.667 117.5,173C 119.858,170.439 122.525,169.939 125.5,171.5 Z"/></g>
<g><path style="opacity:1" fill="#f9f7cf" d="M 24.5,190.5 C 27.1667,191.833 29.8333,191.833 32.5,190.5C 32.5386,191.756 32.0386,192.756 31,193.5C 28.3695,193.141 26.2029,192.141 24.5,190.5 Z"/></g>
<g><path style="opacity:1" fill="#fbf8d7" d="M 58.5,185.5 C 59.4614,187.265 59.7947,189.265 59.5,191.5C 60.5,191.5 61.5,191.5 62.5,191.5C 62.2053,189.265 62.5386,187.265 63.5,185.5C 63.8747,188.397 63.3747,191.063 62,193.5C 61,193.167 60,192.833 59,192.5C 58.5034,190.19 58.3367,187.857 58.5,185.5 Z"/></g>
<g><path style="opacity:1" fill="#fcfbdf" d="M 78.5,189.5 C 79.4674,190.806 80.8007,191.473 82.5,191.5C 79.3023,194.684 77.9689,194.017 78.5,189.5 Z"/></g>
<g><path style="opacity:1" fill="#fefffd" d="M 96.5,193.5 C 97.8333,194.167 97.8333,194.167 96.5,193.5 Z"/></g>
<g><path style="opacity:1" fill="#fefffd" d="M 130.5,193.5 C 131.833,194.167 131.833,194.167 130.5,193.5 Z"/></g>
<g><path style="opacity:1" fill="#fefffd" d="M 41.5,194.5 C 44.7973,194.329 45.1306,194.995 42.5,196.5C 41.7025,196.043 41.3691,195.376 41.5,194.5 Z"/></g>
<g><path style="opacity:1" fill="#fefffd" d="M 88.5,194.5 C 89.8333,195.167 89.8333,195.167 88.5,194.5 Z"/></g>
<g><path style="opacity:1" fill="#fefffd" d="M 126.5,194.5 C 127.525,194.897 127.692,195.563 127,196.5C 126.536,195.906 126.369,195.239 126.5,194.5 Z"/></g>
<g><path style="opacity:1" fill="#fefefd" d="M 161.5,194.5 C 164.797,194.329 165.131,194.995 162.5,196.5C 161.702,196.043 161.369,195.376 161.5,194.5 Z"/></g>
<g><path style="opacity:1" fill="#fefffd" d="M 175.5,194.5 C 176.833,195.167 176.833,195.167 175.5,194.5 Z"/></g>
<g><path style="opacity:1" fill="#fefffd" d="M 60.5,195.5 C 61.8333,196.167 61.8333,196.167 60.5,195.5 Z"/></g>
<g><path style="opacity:1" fill="#fefffd" d="M 66.5,196.5 C 66.8966,195.475 67.5632,195.308 68.5,196C 67.9056,196.464 67.2389,196.631 66.5,196.5 Z"/></g>
<g><path style="opacity:1" fill="#fefffd" d="M 119.5,195.5 C 120.833,196.167 120.833,196.167 119.5,195.5 Z"/></g>
<g><path style="opacity:1" fill="#fdfef9" d="M 121.5,195.5 C 122.525,195.897 122.692,196.563 122,197.5C 121.536,196.906 121.369,196.239 121.5,195.5 Z"/></g>
<g><path style="opacity:1" fill="#fefffd" d="M 156.5,195.5 C 157.833,196.167 157.833,196.167 156.5,195.5 Z"/></g>
<g><path style="opacity:1" fill="#fefffd" d="M 182.5,195.5 C 183.833,196.167 183.833,196.167 182.5,195.5 Z"/></g>
<g><path style="opacity:1" fill="#fefffd" d="M 31.5,196.5 C 32.8333,197.167 32.8333,197.167 31.5,196.5 Z"/></g>
<g><path style="opacity:1" fill="#fefffd" d="M 46.5,196.5 C 47.8333,197.167 47.8333,197.167 46.5,196.5 Z"/></g>
<g><path style="opacity:1" fill="#fefffd" d="M 72.5,196.5 C 73.8333,197.167 73.8333,197.167 72.5,196.5 Z"/></g>
<g><path style="opacity:1" fill="#fefffd" d="M 81.5,196.5 C 82.8333,197.167 82.8333,197.167 81.5,196.5 Z"/></g>
<g><path style="opacity:1" fill="#fefffd" d="M 99.5,196.5 C 100.833,197.167 100.833,197.167 99.5,196.5 Z"/></g>
<g><path style="opacity:1" fill="#fefffd" d="M 170.5,196.5 C 171.833,197.167 171.833,197.167 170.5,196.5 Z"/></g>
<g><path style="opacity:1" fill="#fefefc" d="M 177.5,197.5 C 178.251,196.427 179.251,196.26 180.5,197C 179.552,197.483 178.552,197.649 177.5,197.5 Z"/></g>
</svg>
