<?xml version="1.0" encoding="UTF-8"?>
<!DOCTYPE svg PUBLIC "-//W3C//DTD SVG 1.1//EN" "http://www.w3.org/Graphics/SVG/1.1/DTD/svg11.dtd">
<svg xmlns="http://www.w3.org/2000/svg" version="1.1" width="360px" height="360px" style="shape-rendering:geometricPrecision; text-rendering:geometricPrecision; image-rendering:optimizeQuality; fill-rule:evenodd; clip-rule:evenodd" xmlns:xlink="http://www.w3.org/1999/xlink">
<g><path style="opacity:1" fill="#edeeed" d="M -0.5,-0.5 C 7.5,-0.5 15.5,-0.5 23.5,-0.5C 23.5,7.5 23.5,15.5 23.5,23.5C 15.5,23.5 7.5,23.5 -0.5,23.5C -0.5,15.5 -0.5,7.5 -0.5,-0.5 Z"/></g>
<g><path style="opacity:1" fill="#fefffe" d="M 23.5,-0.5 C 31.5,-0.5 39.5,-0.5 47.5,-0.5C 47.5,7.5 47.5,15.5 47.5,23.5C 39.5,23.5 31.5,23.5 23.5,23.5C 23.5,15.5 23.5,7.5 23.5,-0.5 Z"/></g>
<g><path style="opacity:1" fill="#edeeed" d="M 47.5,-0.5 C 55.5,-0.5 63.5,-0.5 71.5,-0.5C 71.5,7.5 71.5,15.5 71.5,23.5C 63.5,23.5 55.5,23.5 47.5,23.5C 47.5,15.5 47.5,7.5 47.5,-0.5 Z"/></g>
<g><path style="opacity:1" fill="#fefffe" d="M 71.5,-0.5 C 79.5,-0.5 87.5,-0.5 95.5,-0.5C 95.5,7.5 95.5,15.5 95.5,23.5C 87.5,23.5 79.5,23.5 71.5,23.5C 71.5,15.5 71.5,7.5 71.5,-0.5 Z"/></g>
<g><path style="opacity:1" fill="#edeeed" d="M 95.5,-0.5 C 103.5,-0.5 111.5,-0.5 119.5,-0.5C 119.5,7.5 119.5,15.5 119.5,23.5C 111.5,23.5 103.5,23.5 95.5,23.5C 95.5,15.5 95.5,7.5 95.5,-0.5 Z"/></g>
<g><path style="opacity:1" fill="#fefffe" d="M 119.5,-0.5 C 127.5,-0.5 135.5,-0.5 143.5,-0.5C 143.5,7.5 143.5,15.5 143.5,23.5C 135.5,23.5 127.5,23.5 119.5,23.5C 119.5,15.5 119.5,7.5 119.5,-0.5 Z"/></g>
<g><path style="opacity:1" fill="#edeeed" d="M 143.5,-0.5 C 151.5,-0.5 159.5,-0.5 167.5,-0.5C 167.5,7.5 167.5,15.5 167.5,23.5C 159.5,23.5 151.5,23.5 143.5,23.5C 143.5,15.5 143.5,7.5 143.5,-0.5 Z"/></g>
<g><path style="opacity:1" fill="#fefffe" d="M 167.5,-0.5 C 175.5,-0.5 183.5,-0.5 191.5,-0.5C 191.5,7.5 191.5,15.5 191.5,23.5C 183.5,23.5 175.5,23.5 167.5,23.5C 167.5,15.5 167.5,7.5 167.5,-0.5 Z"/></g>
<g><path style="opacity:1" fill="#edeeed" d="M 191.5,-0.5 C 199.5,-0.5 207.5,-0.5 215.5,-0.5C 215.5,7.5 215.5,15.5 215.5,23.5C 207.5,23.5 199.5,23.5 191.5,23.5C 191.5,15.5 191.5,7.5 191.5,-0.5 Z"/></g>
<g><path style="opacity:1" fill="#fefffe" d="M 215.5,-0.5 C 223.5,-0.5 231.5,-0.5 239.5,-0.5C 239.5,7.5 239.5,15.5 239.5,23.5C 231.5,23.5 223.5,23.5 215.5,23.5C 215.5,15.5 215.5,7.5 215.5,-0.5 Z"/></g>
<g><path style="opacity:1" fill="#edeeed" d="M 239.5,-0.5 C 247.5,-0.5 255.5,-0.5 263.5,-0.5C 263.5,7.5 263.5,15.5 263.5,23.5C 255.5,23.5 247.5,23.5 239.5,23.5C 239.5,15.5 239.5,7.5 239.5,-0.5 Z"/></g>
<g><path style="opacity:1" fill="#fefffe" d="M 263.5,-0.5 C 271.5,-0.5 279.5,-0.5 287.5,-0.5C 287.5,7.5 287.5,15.5 287.5,23.5C 279.5,23.5 271.5,23.5 263.5,23.5C 263.5,15.5 263.5,7.5 263.5,-0.5 Z"/></g>
<g><path style="opacity:1" fill="#edeeed" d="M 287.5,-0.5 C 295.5,-0.5 303.5,-0.5 311.5,-0.5C 311.5,7.5 311.5,15.5 311.5,23.5C 303.5,23.5 295.5,23.5 287.5,23.5C 287.5,15.5 287.5,7.5 287.5,-0.5 Z"/></g>
<g><path style="opacity:1" fill="#fefffe" d="M 311.5,-0.5 C 319.5,-0.5 327.5,-0.5 335.5,-0.5C 335.5,7.5 335.5,15.5 335.5,23.5C 327.5,23.5 319.5,23.5 311.5,23.5C 311.5,15.5 311.5,7.5 311.5,-0.5 Z"/></g>
<g><path style="opacity:1" fill="#edeeed" d="M 335.5,-0.5 C 343.5,-0.5 351.5,-0.5 359.5,-0.5C 359.5,7.5 359.5,15.5 359.5,23.5C 351.5,23.5 343.5,23.5 335.5,23.5C 335.5,15.5 335.5,7.5 335.5,-0.5 Z"/></g>
<g><path style="opacity:1" fill="#fefffe" d="M -0.5,23.5 C 7.5,23.5 15.5,23.5 23.5,23.5C 23.5,31.5 23.5,39.5 23.5,47.5C 15.5,47.5 7.5,47.5 -0.5,47.5C -0.5,39.5 -0.5,31.5 -0.5,23.5 Z"/></g>
<g><path style="opacity:1" fill="#edeeed" d="M 23.5,23.5 C 31.5,23.5 39.5,23.5 47.5,23.5C 47.5,31.5 47.5,39.5 47.5,47.5C 39.5,47.5 31.5,47.5 23.5,47.5C 23.5,39.5 23.5,31.5 23.5,23.5 Z"/></g>
<g><path style="opacity:1" fill="#fefffe" d="M 47.5,23.5 C 55.5,23.5 63.5,23.5 71.5,23.5C 71.5,31.5 71.5,39.5 71.5,47.5C 63.5,47.5 55.5,47.5 47.5,47.5C 47.5,39.5 47.5,31.5 47.5,23.5 Z"/></g>
<g><path style="opacity:1" fill="#edeeed" d="M 71.5,23.5 C 79.5,23.5 87.5,23.5 95.5,23.5C 95.5,31.5 95.5,39.5 95.5,47.5C 87.5,47.5 79.5,47.5 71.5,47.5C 71.5,39.5 71.5,31.5 71.5,23.5 Z"/></g>
<g><path style="opacity:1" fill="#fefffe" d="M 95.5,23.5 C 103.5,23.5 111.5,23.5 119.5,23.5C 119.5,31.5 119.5,39.5 119.5,47.5C 111.5,47.5 103.5,47.5 95.5,47.5C 95.5,39.5 95.5,31.5 95.5,23.5 Z"/></g>
<g><path style="opacity:1" fill="#edeeed" d="M 119.5,23.5 C 127.5,23.5 135.5,23.5 143.5,23.5C 143.5,31.5 143.5,39.5 143.5,47.5C 135.5,47.5 127.5,47.5 119.5,47.5C 119.5,39.5 119.5,31.5 119.5,23.5 Z"/></g>
<g><path style="opacity:1" fill="#fefffe" d="M 143.5,23.5 C 151.5,23.5 159.5,23.5 167.5,23.5C 167.5,31.5 167.5,39.5 167.5,47.5C 159.5,47.5 151.5,47.5 143.5,47.5C 143.5,39.5 143.5,31.5 143.5,23.5 Z"/></g>
<g><path style="opacity:1" fill="#eeeeed" d="M 167.5,23.5 C 175.5,23.5 183.5,23.5 191.5,23.5C 191.5,31.5 191.5,39.5 191.5,47.5C 199.5,47.5 207.5,47.5 215.5,47.5C 215.5,50.8333 215.5,54.1667 215.5,57.5C 192.066,51.8849 168.733,52.2182 145.5,58.5C 143.702,55.1691 143.036,51.5025 143.5,47.5C 151.5,47.5 159.5,47.5 167.5,47.5C 167.5,39.5 167.5,31.5 167.5,23.5 Z"/></g>
<g><path style="opacity:1" fill="#fefffe" d="M 191.5,23.5 C 199.5,23.5 207.5,23.5 215.5,23.5C 215.5,31.5 215.5,39.5 215.5,47.5C 207.5,47.5 199.5,47.5 191.5,47.5C 191.5,39.5 191.5,31.5 191.5,23.5 Z"/></g>
<g><path style="opacity:1" fill="#edeeed" d="M 215.5,23.5 C 223.5,23.5 231.5,23.5 239.5,23.5C 239.5,31.5 239.5,39.5 239.5,47.5C 231.5,47.5 223.5,47.5 215.5,47.5C 215.5,39.5 215.5,31.5 215.5,23.5 Z"/></g>
<g><path style="opacity:1" fill="#fefffe" d="M 239.5,23.5 C 247.5,23.5 255.5,23.5 263.5,23.5C 263.5,31.5 263.5,39.5 263.5,47.5C 255.5,47.5 247.5,47.5 239.5,47.5C 239.5,39.5 239.5,31.5 239.5,23.5 Z"/></g>
<g><path style="opacity:1" fill="#edeeed" d="M 263.5,23.5 C 271.5,23.5 279.5,23.5 287.5,23.5C 287.5,31.5 287.5,39.5 287.5,47.5C 279.5,47.5 271.5,47.5 263.5,47.5C 263.5,39.5 263.5,31.5 263.5,23.5 Z"/></g>
<g><path style="opacity:1" fill="#fefffe" d="M 287.5,23.5 C 295.5,23.5 303.5,23.5 311.5,23.5C 311.5,31.5 311.5,39.5 311.5,47.5C 303.5,47.5 295.5,47.5 287.5,47.5C 287.5,39.5 287.5,31.5 287.5,23.5 Z"/></g>
<g><path style="opacity:1" fill="#edeeed" d="M 311.5,23.5 C 319.5,23.5 327.5,23.5 335.5,23.5C 335.5,31.5 335.5,39.5 335.5,47.5C 327.5,47.5 319.5,47.5 311.5,47.5C 311.5,39.5 311.5,31.5 311.5,23.5 Z"/></g>
<g><path style="opacity:1" fill="#fefffe" d="M 335.5,23.5 C 343.5,23.5 351.5,23.5 359.5,23.5C 359.5,31.5 359.5,39.5 359.5,47.5C 351.5,47.5 343.5,47.5 335.5,47.5C 335.5,39.5 335.5,31.5 335.5,23.5 Z"/></g>
<g><path style="opacity:1" fill="#edeeed" d="M -0.5,47.5 C 7.5,47.5 15.5,47.5 23.5,47.5C 23.5,55.5 23.5,63.5 23.5,71.5C 15.5,71.5 7.5,71.5 -0.5,71.5C -0.5,63.5 -0.5,55.5 -0.5,47.5 Z"/></g>
<g><path style="opacity:1" fill="#fefffe" d="M 23.5,47.5 C 31.5,47.5 39.5,47.5 47.5,47.5C 47.5,55.5 47.5,63.5 47.5,71.5C 39.5,71.5 31.5,71.5 23.5,71.5C 23.5,63.5 23.5,55.5 23.5,47.5 Z"/></g>
<g><path style="opacity:1" fill="#edeeed" d="M 47.5,47.5 C 55.5,47.5 63.5,47.5 71.5,47.5C 71.5,55.5 71.5,63.5 71.5,71.5C 63.5,71.5 55.5,71.5 47.5,71.5C 47.5,63.5 47.5,55.5 47.5,47.5 Z"/></g>
<g><path style="opacity:1" fill="#fefffe" d="M 71.5,47.5 C 79.5,47.5 87.5,47.5 95.5,47.5C 95.5,55.5 95.5,63.5 95.5,71.5C 87.5,71.5 79.5,71.5 71.5,71.5C 71.5,63.5 71.5,55.5 71.5,47.5 Z"/></g>
<g><path style="opacity:1" fill="#fcfcfc" d="M 119.5,47.5 C 127.5,47.5 135.5,47.5 143.5,47.5C 143.036,51.5025 143.702,55.1691 145.5,58.5C 136.842,61.852 128.175,65.5186 119.5,69.5C 119.5,62.1667 119.5,54.8333 119.5,47.5 Z"/></g>
<g><path style="opacity:1" fill="#fbfbfb" d="M 215.5,47.5 C 223.5,47.5 231.5,47.5 239.5,47.5C 240.12,53.9262 239.453,59.9262 237.5,65.5C 233.424,63.8139 229.424,62.1472 225.5,60.5C 222.495,58.7234 219.162,57.7234 215.5,57.5C 215.5,54.1667 215.5,50.8333 215.5,47.5 Z"/></g>
<g><path style="opacity:1" fill="#fefffe" d="M 263.5,47.5 C 271.5,47.5 279.5,47.5 287.5,47.5C 287.5,55.5 287.5,63.5 287.5,71.5C 279.5,71.5 271.5,71.5 263.5,71.5C 263.5,63.5 263.5,55.5 263.5,47.5 Z"/></g>
<g><path style="opacity:1" fill="#edeeed" d="M 287.5,47.5 C 295.5,47.5 303.5,47.5 311.5,47.5C 311.5,55.5 311.5,63.5 311.5,71.5C 303.5,71.5 295.5,71.5 287.5,71.5C 287.5,63.5 287.5,55.5 287.5,47.5 Z"/></g>
<g><path style="opacity:1" fill="#fefffe" d="M 311.5,47.5 C 319.5,47.5 327.5,47.5 335.5,47.5C 335.5,55.5 335.5,63.5 335.5,71.5C 327.5,71.5 319.5,71.5 311.5,71.5C 311.5,63.5 311.5,55.5 311.5,47.5 Z"/></g>
<g><path style="opacity:1" fill="#edeeed" d="M 335.5,47.5 C 343.5,47.5 351.5,47.5 359.5,47.5C 359.5,55.5 359.5,63.5 359.5,71.5C 351.5,71.5 343.5,71.5 335.5,71.5C 335.5,63.5 335.5,55.5 335.5,47.5 Z"/></g>
<g><path style="opacity:1" fill="#989896" d="M 215.5,57.5 C 219.162,57.7234 222.495,58.7234 225.5,60.5C 221.838,60.2766 218.505,59.2766 215.5,57.5 Z"/></g>
<g><path style="opacity:1" fill="#fefffe" d="M -0.5,71.5 C 7.5,71.5 15.5,71.5 23.5,71.5C 23.5,79.5 23.5,87.5 23.5,95.5C 15.5,95.5 7.5,95.5 -0.5,95.5C -0.5,87.5 -0.5,79.5 -0.5,71.5 Z"/></g>
<g><path style="opacity:1" fill="#edeeed" d="M 23.5,71.5 C 31.5,71.5 39.5,71.5 47.5,71.5C 47.5,79.5 47.5,87.5 47.5,95.5C 39.5,95.5 31.5,95.5 23.5,95.5C 23.5,87.5 23.5,79.5 23.5,71.5 Z"/></g>
<g><path style="opacity:1" fill="#fefffe" d="M 47.5,71.5 C 55.5,71.5 63.5,71.5 71.5,71.5C 71.5,79.5 71.5,87.5 71.5,95.5C 63.5,95.5 55.5,95.5 47.5,95.5C 47.5,87.5 47.5,79.5 47.5,71.5 Z"/></g>
<g><path style="opacity:1" fill="#fefffe" d="M 287.5,71.5 C 295.5,71.5 303.5,71.5 311.5,71.5C 311.5,79.5 311.5,87.5 311.5,95.5C 303.5,95.5 295.5,95.5 287.5,95.5C 287.5,87.5 287.5,79.5 287.5,71.5 Z"/></g>
<g><path style="opacity:1" fill="#edeeed" d="M 311.5,71.5 C 319.5,71.5 327.5,71.5 335.5,71.5C 335.5,79.5 335.5,87.5 335.5,95.5C 327.5,95.5 319.5,95.5 311.5,95.5C 311.5,87.5 311.5,79.5 311.5,71.5 Z"/></g>
<g><path style="opacity:1" fill="#fefffe" d="M 335.5,71.5 C 343.5,71.5 351.5,71.5 359.5,71.5C 359.5,79.5 359.5,87.5 359.5,95.5C 351.5,95.5 343.5,95.5 335.5,95.5C 335.5,87.5 335.5,79.5 335.5,71.5 Z"/></g>
<g><path style="opacity:1" fill="#949492" d="M 261.5,80.5 C 263.749,81.0798 265.415,82.4131 266.5,84.5C 264.251,83.9202 262.585,82.5869 261.5,80.5 Z"/></g>
<g><path style="opacity:1" fill="#edeeed" d="M -0.5,95.5 C 7.5,95.5 15.5,95.5 23.5,95.5C 23.5,103.5 23.5,111.5 23.5,119.5C 15.5,119.5 7.5,119.5 -0.5,119.5C -0.5,111.5 -0.5,103.5 -0.5,95.5 Z"/></g>
<g><path style="opacity:1" fill="#fefffe" d="M 23.5,95.5 C 31.5,95.5 39.5,95.5 47.5,95.5C 47.5,103.5 47.5,111.5 47.5,119.5C 39.5,119.5 31.5,119.5 23.5,119.5C 23.5,111.5 23.5,103.5 23.5,95.5 Z"/></g>
<g><path style="opacity:1" fill="#efefef" d="M 95.5,47.5 C 103.5,47.5 111.5,47.5 119.5,47.5C 119.5,54.8333 119.5,62.1667 119.5,69.5C 99.0534,82.9469 82.7201,100.28 70.5,121.5C 70.3893,120.883 70.056,120.383 69.5,120C 62.1742,119.5 54.8409,119.334 47.5,119.5C 47.5,111.5 47.5,103.5 47.5,95.5C 55.5,95.5 63.5,95.5 71.5,95.5C 71.5,87.5 71.5,79.5 71.5,71.5C 79.5,71.5 87.5,71.5 95.5,71.5C 95.5,63.5 95.5,55.5 95.5,47.5 Z"/></g>
<g><path style="opacity:1" fill="#fefffe" d="M 311.5,95.5 C 319.5,95.5 327.5,95.5 335.5,95.5C 335.5,103.5 335.5,111.5 335.5,119.5C 327.5,119.5 319.5,119.5 311.5,119.5C 311.5,111.5 311.5,103.5 311.5,95.5 Z"/></g>
<g><path style="opacity:1" fill="#edeeed" d="M 335.5,95.5 C 343.5,95.5 351.5,95.5 359.5,95.5C 359.5,103.5 359.5,111.5 359.5,119.5C 351.5,119.5 343.5,119.5 335.5,119.5C 335.5,111.5 335.5,103.5 335.5,95.5 Z"/></g>
<g><path style="opacity:1" fill="#1d1d1b" d="M 183.5,100.5 C 188.88,100.324 194.213,100.658 199.5,101.5C 205.321,103.979 210.321,107.645 214.5,112.5C 215.596,115.032 216.929,117.365 218.5,119.5C 220.538,127.776 220.872,136.11 219.5,144.5C 220.325,145.386 221.325,145.719 222.5,145.5C 222.5,150.167 222.5,154.833 222.5,159.5C 221.33,161.65 220.33,163.984 219.5,166.5C 217.929,168.415 215.929,169.415 213.5,169.5C 213.148,173.776 211.981,177.776 210,181.5C 209.188,189.222 209.522,196.889 211,204.5C 212.11,206.037 213.61,206.703 215.5,206.5C 222.068,208.688 228.735,210.688 235.5,212.5C 235.611,213.117 235.944,213.617 236.5,214C 247.135,216.984 257.135,221.317 266.5,227C 270.763,233.539 273.43,240.705 274.5,248.5C 277.223,244.792 279.89,241.125 282.5,237.5C 283.806,237.121 285.139,236.788 286.5,236.5C 287.034,230.465 288.368,230.132 290.5,235.5C 291.396,234.494 292.062,234.494 292.5,235.5C 291.691,237.071 291.357,238.738 291.5,240.5C 290.5,240.5 289.5,240.5 288.5,240.5C 288.527,242.199 289.194,243.533 290.5,244.5C 268.224,280.328 235.89,300.495 193.5,305C 177.186,306.592 161.186,305.092 145.5,300.5C 137.074,297.957 129.074,294.29 121.5,289.5C 109.094,283.106 98.4277,274.44 89.5,263.5C 89.5394,262.417 89.8728,261.417 90.5,260.5C 87.746,258.826 87.4127,257.159 89.5,255.5C 88.4798,253.568 88.3131,251.568 89,249.5C 89.4828,250.448 89.6495,251.448 89.5,252.5C 91.1238,252.36 92.2904,253.027 93,254.5C 93.4828,253.552 93.6495,252.552 93.5,251.5C 92.325,251.719 91.325,251.386 90.5,250.5C 90.6236,249.893 90.9569,249.56 91.5,249.5C 93.6928,247.478 94.6928,244.811 94.5,241.5C 96.1159,232.142 100.449,224.309 107.5,218C 111.669,216.414 115.669,214.58 119.5,212.5C 127.499,210.834 135.499,209.167 143.5,207.5C 155.105,208.224 160.771,202.891 160.5,191.5C 160.289,184.359 159.123,177.359 157,170.5C 155.28,169.616 154.114,168.283 153.5,166.5C 150.498,159.203 150.165,151.87 152.5,144.5C 153.305,138.311 154.138,131.977 155,125.5C 156.707,123.091 157.54,120.425 157.5,117.5C 162.148,109.331 169.148,104.331 178.5,102.5C 180.403,102.204 182.07,101.537 183.5,100.5 Z"/></g>
<g><path style="opacity:1" fill="#fefffe" d="M -0.5,119.5 C 7.5,119.5 15.5,119.5 23.5,119.5C 23.5,127.5 23.5,135.5 23.5,143.5C 15.5,143.5 7.5,143.5 -0.5,143.5C -0.5,135.5 -0.5,127.5 -0.5,119.5 Z"/></g>
<g><path style="opacity:1" fill="#edeeed" d="M 23.5,119.5 C 31.5,119.5 39.5,119.5 47.5,119.5C 47.5,127.5 47.5,135.5 47.5,143.5C 39.5,143.5 31.5,143.5 23.5,143.5C 23.5,135.5 23.5,127.5 23.5,119.5 Z"/></g>
<g><path style="opacity:1" fill="#fcfcfc" d="M 47.5,119.5 C 54.8409,119.334 62.1742,119.5 69.5,120C 70.056,120.383 70.3893,120.883 70.5,121.5C 67.0426,129.004 64.0426,136.671 61.5,144.5C 56.9296,143.559 52.263,143.226 47.5,143.5C 47.5,135.5 47.5,127.5 47.5,119.5 Z"/></g>
<g><path style="opacity:1" fill="#fefffe" d="M 335.5,119.5 C 343.5,119.5 351.5,119.5 359.5,119.5C 359.5,127.5 359.5,135.5 359.5,143.5C 351.5,143.5 343.5,143.5 335.5,143.5C 335.5,135.5 335.5,127.5 335.5,119.5 Z"/></g>
<g><path style="opacity:1" fill="#21211f" d="M 215.5,57.5 C 218.505,59.2766 221.838,60.2766 225.5,60.5C 229.424,62.1472 233.424,63.8139 237.5,65.5C 246.009,69.6741 254.009,74.6741 261.5,80.5C 262.585,82.5869 264.251,83.9202 266.5,84.5C 299.679,115.388 313.513,153.722 308,199.5C 305.75,210.107 302.75,220.44 299,230.5C 296.392,235.397 293.559,240.063 290.5,244.5C 289.194,243.533 288.527,242.199 288.5,240.5C 289.5,240.5 290.5,240.5 291.5,240.5C 291.357,238.738 291.691,237.071 292.5,235.5C 292.062,234.494 291.396,234.494 290.5,235.5C 288.368,230.132 287.034,230.465 286.5,236.5C 285.139,236.788 283.806,237.121 282.5,237.5C 287.132,228.56 290.965,219.227 294,209.5C 295.481,203.581 296.314,197.581 296.5,191.5C 297.833,183.5 297.833,175.5 296.5,167.5C 292.039,126.904 271.872,96.9035 236,77.5C 222.879,70.9291 209.045,66.9291 194.5,65.5C 185.52,64.3725 176.52,64.3725 167.5,65.5C 164.505,65.2938 161.838,65.9605 159.5,67.5C 153.676,67.9498 148.342,69.6165 143.5,72.5C 124.662,78.5169 108.829,89.1835 96,104.5C 85.7551,115.9 78.5885,128.9 74.5,143.5C 72.9261,145.102 72.2594,147.102 72.5,149.5C 72.1667,150.833 71.8333,152.167 71.5,153.5C 70.4667,156.986 69.6334,160.653 69,164.5C 68.176,173.676 68.3427,182.676 69.5,191.5C 69.3359,194.187 69.5026,196.854 70,199.5C 71.2339,205.791 73.0673,211.791 75.5,217.5C 79.0767,228.742 84.4101,239.076 91.5,248.5C 91.5,248.833 91.5,249.167 91.5,249.5C 90.9569,249.56 90.6236,249.893 90.5,250.5C 91.325,251.386 92.325,251.719 93.5,251.5C 93.6495,252.552 93.4828,253.552 93,254.5C 92.2904,253.027 91.1238,252.36 89.5,252.5C 89.6495,251.448 89.4828,250.448 89,249.5C 88.3131,251.568 88.4798,253.568 89.5,255.5C 87.4127,257.159 87.746,258.826 90.5,260.5C 89.8728,261.417 89.5394,262.417 89.5,263.5C 86.1983,260.026 83.0316,256.359 80,252.5C 77.6403,247.76 74.8069,243.426 71.5,239.5C 68.5057,231.542 65.5057,223.542 62.5,215.5C 58.0175,201.217 56.3508,186.55 57.5,171.5C 57.7713,162.327 59.1046,153.327 61.5,144.5C 64.0426,136.671 67.0426,129.004 70.5,121.5C 82.7201,100.28 99.0534,82.9469 119.5,69.5C 128.175,65.5186 136.842,61.852 145.5,58.5C 168.733,52.2182 192.066,51.8849 215.5,57.5 Z"/></g>
<g><path style="opacity:1" fill="#636362" d="M 157.5,117.5 C 157.54,120.425 156.707,123.091 155,125.5C 154.138,131.977 153.305,138.311 152.5,144.5C 152.037,135.961 153.037,127.628 155.5,119.5C 156.167,118.833 156.833,118.167 157.5,117.5 Z"/></g>
<g><path style="opacity:1" fill="#fefffe" d="M 239.5,119.5 C 247.5,119.5 255.5,119.5 263.5,119.5C 263.5,127.5 263.5,135.5 263.5,143.5C 255.5,143.5 247.5,143.5 239.5,143.5C 239.5,135.5 239.5,127.5 239.5,119.5 Z"/></g>
<g><path style="opacity:1" fill="#ededed" d="M 218.5,119.5 C 225.5,119.5 232.5,119.5 239.5,119.5C 239.5,127.5 239.5,135.5 239.5,143.5C 234.156,143.334 228.823,143.501 223.5,144C 222.944,144.383 222.611,144.883 222.5,145.5C 221.325,145.719 220.325,145.386 219.5,144.5C 220.872,136.11 220.538,127.776 218.5,119.5 Z"/></g>
<g><path style="opacity:1" fill="#fefefe" d="M 143.5,119.5 C 147.03,118.989 150.196,119.656 153,121.5C 153.417,120.244 154.25,119.577 155.5,119.5C 153.037,127.628 152.037,135.961 152.5,144.5C 149.609,143.597 146.609,143.264 143.5,143.5C 143.5,135.5 143.5,127.5 143.5,119.5 Z"/></g>
<g><path style="opacity:1" fill="#edeeed" d="M 119.5,119.5 C 127.5,119.5 135.5,119.5 143.5,119.5C 143.5,127.5 143.5,135.5 143.5,143.5C 135.5,143.5 127.5,143.5 119.5,143.5C 119.5,135.5 119.5,127.5 119.5,119.5 Z"/></g>
<g><path style="opacity:1" fill="#fefffe" d="M 119.5,119.5 C 119.5,127.5 119.5,135.5 119.5,143.5C 111.5,143.5 103.5,143.5 95.5,143.5C 95.5,135.5 95.5,127.5 95.5,119.5C 103.5,119.5 111.5,119.5 119.5,119.5 Z"/></g>
<g><path style="opacity:1" fill="#eeeeee" d="M 194.5,65.5 C 209.045,66.9291 222.879,70.9291 236,77.5C 271.872,96.9035 292.039,126.904 296.5,167.5C 293.5,167.5 290.5,167.5 287.5,167.5C 287.5,159.5 287.5,151.5 287.5,143.5C 279.5,143.5 271.5,143.5 263.5,143.5C 263.5,135.5 263.5,127.5 263.5,119.5C 255.5,119.5 247.5,119.5 239.5,119.5C 239.5,111.5 239.5,103.5 239.5,95.5C 231.5,95.5 223.5,95.5 215.5,95.5C 215.5,87.5 215.5,79.5 215.5,71.5C 207.5,71.5 199.5,71.5 191.5,71.5C 193.658,69.78 196.325,68.9467 199.5,69C 197.699,68.6827 197.366,68.016 198.5,67C 196.942,66.79 195.609,66.29 194.5,65.5 Z"/></g>
<g><path style="opacity:1" fill="#fefefe" d="M 215.5,95.5 C 223.5,95.5 231.5,95.5 239.5,95.5C 239.5,103.5 239.5,111.5 239.5,119.5C 232.5,119.5 225.5,119.5 218.5,119.5C 216.929,117.365 215.596,115.032 214.5,112.5C 215.452,106.925 215.786,101.259 215.5,95.5 Z"/></g>
<g><path style="opacity:1" fill="#fefffe" d="M 143.5,95.5 C 143.5,103.5 143.5,111.5 143.5,119.5C 135.5,119.5 127.5,119.5 119.5,119.5C 119.5,111.5 119.5,103.5 119.5,95.5C 127.5,95.5 135.5,95.5 143.5,95.5 Z"/></g>
<g><path style="opacity:1" fill="#ececec" d="M 143.5,72.5 C 143.082,73.2216 142.416,73.7216 141.5,74C 143.441,80.8853 144.108,88.052 143.5,95.5C 135.5,95.5 127.5,95.5 119.5,95.5C 119.5,103.5 119.5,111.5 119.5,119.5C 111.5,119.5 103.5,119.5 95.5,119.5C 95.5,127.5 95.5,135.5 95.5,143.5C 88.7113,144.101 82.2113,143.434 76,141.5C 75.7216,142.416 75.2216,143.082 74.5,143.5C 78.5885,128.9 85.7551,115.9 96,104.5C 108.829,89.1835 124.662,78.5169 143.5,72.5 Z"/></g>
<g><path style="opacity:1" fill="#fefffe" d="M 191.5,71.5 C 199.5,71.5 207.5,71.5 215.5,71.5C 215.5,79.5 215.5,87.5 215.5,95.5C 207.5,95.5 199.5,95.5 191.5,95.5C 191.5,87.5 191.5,79.5 191.5,71.5 Z"/></g>
<g><path style="opacity:1" fill="#eeeeee" d="M 191.5,71.5 C 191.5,79.5 191.5,87.5 191.5,95.5C 199.5,95.5 207.5,95.5 215.5,95.5C 215.786,101.259 215.452,106.925 214.5,112.5C 210.321,107.645 205.321,103.979 199.5,101.5C 199.082,100.778 198.416,100.278 197.5,100C 192.648,99.1849 187.981,99.3516 183.5,100.5C 181.302,100.12 179.635,100.787 178.5,102.5C 169.148,104.331 162.148,109.331 157.5,117.5C 156.833,118.167 156.167,118.833 155.5,119.5C 154.25,119.577 153.417,120.244 153,121.5C 150.196,119.656 147.03,118.989 143.5,119.5C 143.5,111.5 143.5,103.5 143.5,95.5C 151.5,95.5 159.5,95.5 167.5,95.5C 167.5,87.5 167.5,79.5 167.5,71.5C 175.5,71.5 183.5,71.5 191.5,71.5 Z"/></g>
<g><path style="opacity:1" fill="#858583" d="M 183.5,100.5 C 182.07,101.537 180.403,102.204 178.5,102.5C 179.635,100.787 181.302,100.12 183.5,100.5 Z"/></g>
<g><path style="opacity:1" fill="#9e9e9d" d="M 183.5,100.5 C 187.981,99.3516 192.648,99.1849 197.5,100C 198.416,100.278 199.082,100.778 199.5,101.5C 194.213,100.658 188.88,100.324 183.5,100.5 Z"/></g>
<g><path style="opacity:1" fill="#f9f9f9" d="M 194.5,65.5 C 195.609,66.29 196.942,66.79 198.5,67C 197.366,68.016 197.699,68.6827 199.5,69C 196.325,68.9467 193.658,69.78 191.5,71.5C 183.5,71.5 175.5,71.5 167.5,71.5C 167.5,79.5 167.5,87.5 167.5,95.5C 159.5,95.5 151.5,95.5 143.5,95.5C 144.108,88.052 143.441,80.8853 141.5,74C 142.416,73.7216 143.082,73.2216 143.5,72.5C 148.342,69.6165 153.676,67.9498 159.5,67.5C 162.428,67.4349 165.095,66.7682 167.5,65.5C 176.52,64.3725 185.52,64.3725 194.5,65.5 Z"/></g>
<g><path style="opacity:1" fill="#878785" d="M 167.5,65.5 C 165.095,66.7682 162.428,67.4349 159.5,67.5C 161.838,65.9605 164.505,65.2938 167.5,65.5 Z"/></g>
<g><path style="opacity:1" fill="#fefefe" d="M 95.5,143.5 C 95.5,151.5 95.5,159.5 95.5,167.5C 87.5,167.5 79.5,167.5 71.5,167.5C 71.5,162.833 71.5,158.167 71.5,153.5C 71.8333,152.167 72.1667,150.833 72.5,149.5C 74.0739,147.898 74.7406,145.898 74.5,143.5C 75.2216,143.082 75.7216,142.416 76,141.5C 82.2113,143.434 88.7113,144.101 95.5,143.5 Z"/></g>
<g><path style="opacity:1" fill="#edeeed" d="M -0.5,143.5 C 7.5,143.5 15.5,143.5 23.5,143.5C 23.5,151.5 23.5,159.5 23.5,167.5C 15.5,167.5 7.5,167.5 -0.5,167.5C -0.5,159.5 -0.5,151.5 -0.5,143.5 Z"/></g>
<g><path style="opacity:1" fill="#fefffe" d="M 23.5,143.5 C 31.5,143.5 39.5,143.5 47.5,143.5C 47.5,151.5 47.5,159.5 47.5,167.5C 39.5,167.5 31.5,167.5 23.5,167.5C 23.5,159.5 23.5,151.5 23.5,143.5 Z"/></g>
<g><path style="opacity:1" fill="#ebebeb" d="M 47.5,143.5 C 52.263,143.226 56.9296,143.559 61.5,144.5C 59.1046,153.327 57.7713,162.327 57.5,171.5C 57.1667,171.5 56.8333,171.5 56.5,171.5C 56.5,170.167 56.5,168.833 56.5,167.5C 53.5,167.5 50.5,167.5 47.5,167.5C 47.5,159.5 47.5,151.5 47.5,143.5 Z"/></g>
<g><path style="opacity:1" fill="#edeeed" d="M 95.5,143.5 C 103.5,143.5 111.5,143.5 119.5,143.5C 119.5,151.5 119.5,159.5 119.5,167.5C 111.5,167.5 103.5,167.5 95.5,167.5C 95.5,159.5 95.5,151.5 95.5,143.5 Z"/></g>
<g><path style="opacity:1" fill="#fefffe" d="M 119.5,143.5 C 127.5,143.5 135.5,143.5 143.5,143.5C 143.5,151.5 143.5,159.5 143.5,167.5C 135.5,167.5 127.5,167.5 119.5,167.5C 119.5,159.5 119.5,151.5 119.5,143.5 Z"/></g>
<g><path style="opacity:1" fill="#fcfcfc" d="M 239.5,143.5 C 239.5,151.5 239.5,159.5 239.5,167.5C 233.158,167.666 226.825,167.5 220.5,167C 222.113,164.772 222.78,162.272 222.5,159.5C 222.5,154.833 222.5,150.167 222.5,145.5C 222.611,144.883 222.944,144.383 223.5,144C 228.823,143.501 234.156,143.334 239.5,143.5 Z"/></g>
<g><path style="opacity:1" fill="#edeeed" d="M 239.5,143.5 C 247.5,143.5 255.5,143.5 263.5,143.5C 263.5,151.5 263.5,159.5 263.5,167.5C 255.5,167.5 247.5,167.5 239.5,167.5C 239.5,159.5 239.5,151.5 239.5,143.5 Z"/></g>
<g><path style="opacity:1" fill="#fefffe" d="M 263.5,143.5 C 271.5,143.5 279.5,143.5 287.5,143.5C 287.5,151.5 287.5,159.5 287.5,167.5C 279.5,167.5 271.5,167.5 263.5,167.5C 263.5,159.5 263.5,151.5 263.5,143.5 Z"/></g>
<g><path style="opacity:1" fill="#fffffe" d="M 335.5,143.5 C 335.5,151.5 335.5,159.5 335.5,167.5C 327.5,167.5 319.5,167.5 311.5,167.5C 311.5,159.5 311.5,151.5 311.5,143.5C 319.5,143.5 327.5,143.5 335.5,143.5 Z"/></g>
<g><path style="opacity:1" fill="#edeeed" d="M 335.5,143.5 C 343.5,143.5 351.5,143.5 359.5,143.5C 359.5,151.5 359.5,159.5 359.5,167.5C 351.5,167.5 343.5,167.5 335.5,167.5C 335.5,159.5 335.5,151.5 335.5,143.5 Z"/></g>
<g><path style="opacity:1" fill="#eaeaea" d="M 143.5,143.5 C 146.609,143.264 149.609,143.597 152.5,144.5C 150.165,151.87 150.498,159.203 153.5,166.5C 150.272,167.414 146.939,167.747 143.5,167.5C 143.5,159.5 143.5,151.5 143.5,143.5 Z"/></g>
<g><path style="opacity:1" fill="#adadab" d="M 74.5,143.5 C 74.7406,145.898 74.0739,147.898 72.5,149.5C 72.2594,147.102 72.9261,145.102 74.5,143.5 Z"/></g>
<g><path style="opacity:1" fill="#fefffe" d="M -0.5,167.5 C 7.5,167.5 15.5,167.5 23.5,167.5C 23.5,175.5 23.5,183.5 23.5,191.5C 15.5,191.5 7.5,191.5 -0.5,191.5C -0.5,183.5 -0.5,175.5 -0.5,167.5 Z"/></g>
<g><path style="opacity:1" fill="#edeeed" d="M 23.5,167.5 C 31.5,167.5 39.5,167.5 47.5,167.5C 47.5,175.5 47.5,183.5 47.5,191.5C 39.5,191.5 31.5,191.5 23.5,191.5C 23.5,183.5 23.5,175.5 23.5,167.5 Z"/></g>
<g><path style="opacity:1" fill="#fefefe" d="M 47.5,167.5 C 50.5,167.5 53.5,167.5 56.5,167.5C 56.5,168.833 56.5,170.167 56.5,171.5C 56.5,178.167 56.5,184.833 56.5,191.5C 53.5,191.5 50.5,191.5 47.5,191.5C 47.5,183.5 47.5,175.5 47.5,167.5 Z"/></g>
<g><path style="opacity:1" fill="#eeeeed" d="M 71.5,167.5 C 79.5,167.5 87.5,167.5 95.5,167.5C 95.5,175.5 95.5,183.5 95.5,191.5C 87.5,191.5 79.5,191.5 71.5,191.5C 71.5,183.5 71.5,175.5 71.5,167.5 Z"/></g>
<g><path style="opacity:1" fill="#fefffe" d="M 95.5,167.5 C 103.5,167.5 111.5,167.5 119.5,167.5C 119.5,175.5 119.5,183.5 119.5,191.5C 111.5,191.5 103.5,191.5 95.5,191.5C 95.5,183.5 95.5,175.5 95.5,167.5 Z"/></g>
<g><path style="opacity:1" fill="#edeeed" d="M 119.5,167.5 C 127.5,167.5 135.5,167.5 143.5,167.5C 143.5,175.5 143.5,183.5 143.5,191.5C 135.5,191.5 127.5,191.5 119.5,191.5C 119.5,183.5 119.5,175.5 119.5,167.5 Z"/></g>
<g><path style="opacity:1" fill="#fbfbfb" d="M 153.5,166.5 C 154.114,168.283 155.28,169.616 157,170.5C 159.123,177.359 160.289,184.359 160.5,191.5C 154.833,191.5 149.167,191.5 143.5,191.5C 143.5,183.5 143.5,175.5 143.5,167.5C 146.939,167.747 150.272,167.414 153.5,166.5 Z"/></g>
<g><path style="opacity:1" fill="#ebebeb" d="M 222.5,159.5 C 222.78,162.272 222.113,164.772 220.5,167C 226.825,167.5 233.158,167.666 239.5,167.5C 239.5,175.5 239.5,183.5 239.5,191.5C 231.5,191.5 223.5,191.5 215.5,191.5C 215.5,196.5 215.5,201.5 215.5,206.5C 213.61,206.703 212.11,206.037 211,204.5C 209.522,196.889 209.188,189.222 210,181.5C 211.981,177.776 213.148,173.776 213.5,169.5C 215.929,169.415 217.929,168.415 219.5,166.5C 220.33,163.984 221.33,161.65 222.5,159.5 Z"/></g>
<g><path style="opacity:1" fill="#fefffe" d="M 239.5,167.5 C 247.5,167.5 255.5,167.5 263.5,167.5C 263.5,175.5 263.5,183.5 263.5,191.5C 255.5,191.5 247.5,191.5 239.5,191.5C 239.5,183.5 239.5,175.5 239.5,167.5 Z"/></g>
<g><path style="opacity:1" fill="#edeeed" d="M 263.5,167.5 C 271.5,167.5 279.5,167.5 287.5,167.5C 287.5,175.5 287.5,183.5 287.5,191.5C 279.5,191.5 271.5,191.5 263.5,191.5C 263.5,183.5 263.5,175.5 263.5,167.5 Z"/></g>
<g><path style="opacity:1" fill="#fcfcfc" d="M 287.5,167.5 C 290.5,167.5 293.5,167.5 296.5,167.5C 297.833,175.5 297.833,183.5 296.5,191.5C 293.5,191.5 290.5,191.5 287.5,191.5C 287.5,183.5 287.5,175.5 287.5,167.5 Z"/></g>
<g><path style="opacity:1" fill="#eeeeee" d="M 239.5,47.5 C 247.5,47.5 255.5,47.5 263.5,47.5C 263.5,55.5 263.5,63.5 263.5,71.5C 271.5,71.5 279.5,71.5 287.5,71.5C 287.5,79.5 287.5,87.5 287.5,95.5C 295.5,95.5 303.5,95.5 311.5,95.5C 311.5,103.5 311.5,111.5 311.5,119.5C 319.5,119.5 327.5,119.5 335.5,119.5C 335.5,127.5 335.5,135.5 335.5,143.5C 327.5,143.5 319.5,143.5 311.5,143.5C 311.5,151.5 311.5,159.5 311.5,167.5C 319.5,167.5 327.5,167.5 335.5,167.5C 335.5,175.5 335.5,183.5 335.5,191.5C 327.5,191.5 319.5,191.5 311.5,191.5C 311.5,199.5 311.5,207.5 311.5,215.5C 319.5,215.5 327.5,215.5 335.5,215.5C 335.5,223.5 335.5,231.5 335.5,239.5C 327.5,239.5 319.5,239.5 311.5,239.5C 311.5,247.5 311.5,255.5 311.5,263.5C 303.5,263.5 295.5,263.5 287.5,263.5C 287.5,271.5 287.5,279.5 287.5,287.5C 279.5,287.5 271.5,287.5 263.5,287.5C 263.5,295.5 263.5,303.5 263.5,311.5C 255.5,311.5 247.5,311.5 239.5,311.5C 239.5,319.5 239.5,327.5 239.5,335.5C 231.5,335.5 223.5,335.5 215.5,335.5C 215.5,327.5 215.5,319.5 215.5,311.5C 207.5,311.5 199.5,311.5 191.5,311.5C 191.5,319.5 191.5,327.5 191.5,335.5C 183.5,335.5 175.5,335.5 167.5,335.5C 167.5,327.5 167.5,319.5 167.5,311.5C 159.5,311.5 151.5,311.5 143.5,311.5C 143.036,307.498 143.702,303.831 145.5,300.5C 161.186,305.092 177.186,306.592 193.5,305C 235.89,300.495 268.224,280.328 290.5,244.5C 293.559,240.063 296.392,235.397 299,230.5C 302.75,220.44 305.75,210.107 308,199.5C 313.513,153.722 299.679,115.388 266.5,84.5C 265.415,82.4131 263.749,81.0798 261.5,80.5C 254.009,74.6741 246.009,69.6741 237.5,65.5C 239.453,59.9262 240.12,53.9262 239.5,47.5 Z"/></g>
<g><path style="opacity:1" fill="#fefffe" d="M 335.5,167.5 C 343.5,167.5 351.5,167.5 359.5,167.5C 359.5,175.5 359.5,183.5 359.5,191.5C 351.5,191.5 343.5,191.5 335.5,191.5C 335.5,183.5 335.5,175.5 335.5,167.5 Z"/></g>
<g><path style="opacity:1" fill="#c5c5c3" d="M 71.5,153.5 C 71.5,158.167 71.5,162.833 71.5,167.5C 69.5332,175.097 68.8665,183.097 69.5,191.5C 68.3427,182.676 68.176,173.676 69,164.5C 69.6334,160.653 70.4667,156.986 71.5,153.5 Z"/></g>
<g><path style="opacity:1" fill="#edeeed" d="M -0.5,191.5 C 7.5,191.5 15.5,191.5 23.5,191.5C 23.5,199.5 23.5,207.5 23.5,215.5C 15.5,215.5 7.5,215.5 -0.5,215.5C -0.5,207.5 -0.5,199.5 -0.5,191.5 Z"/></g>
<g><path style="opacity:1" fill="#fefffe" d="M 23.5,191.5 C 31.5,191.5 39.5,191.5 47.5,191.5C 47.5,199.5 47.5,207.5 47.5,215.5C 39.5,215.5 31.5,215.5 23.5,215.5C 23.5,207.5 23.5,199.5 23.5,191.5 Z"/></g>
<g><path style="opacity:1" fill="#e6e6e6" d="M 56.5,171.5 C 56.8333,171.5 57.1667,171.5 57.5,171.5C 56.3508,186.55 58.0175,201.217 62.5,215.5C 57.711,215.365 52.711,215.365 47.5,215.5C 47.5,207.5 47.5,199.5 47.5,191.5C 50.5,191.5 53.5,191.5 56.5,191.5C 56.5,184.833 56.5,178.167 56.5,171.5 Z"/></g>
<g><path style="opacity:1" fill="#fcfcfb" d="M 71.5,167.5 C 71.5,175.5 71.5,183.5 71.5,191.5C 79.5,191.5 87.5,191.5 95.5,191.5C 95.5,199.5 95.5,207.5 95.5,215.5C 88.5491,214.934 81.8824,215.601 75.5,217.5C 73.0673,211.791 71.2339,205.791 70,199.5C 69.5026,196.854 69.3359,194.187 69.5,191.5C 68.8665,183.097 69.5332,175.097 71.5,167.5 Z"/></g>
<g><path style="opacity:1" fill="#fdfdfc" d="M 119.5,191.5 C 127.5,191.5 135.5,191.5 143.5,191.5C 143.5,196.833 143.5,202.167 143.5,207.5C 135.499,209.167 127.499,210.834 119.5,212.5C 119.577,211.25 120.244,210.417 121.5,210C 119.57,204.126 118.903,197.96 119.5,191.5 Z"/></g>
<g><path style="opacity:1" fill="#eaeaea" d="M 143.5,191.5 C 149.167,191.5 154.833,191.5 160.5,191.5C 160.771,202.891 155.105,208.224 143.5,207.5C 143.5,202.167 143.5,196.833 143.5,191.5 Z"/></g>
<g><path style="opacity:1" fill="#fbfbfb" d="M 239.5,191.5 C 239.831,198.863 239.497,206.197 238.5,213.5C 237.583,212.873 236.583,212.539 235.5,212.5C 228.735,210.688 222.068,208.688 215.5,206.5C 215.5,201.5 215.5,196.5 215.5,191.5C 223.5,191.5 231.5,191.5 239.5,191.5 Z"/></g>
<g><path style="opacity:1" fill="#fffffe" d="M 335.5,191.5 C 335.5,199.5 335.5,207.5 335.5,215.5C 327.5,215.5 319.5,215.5 311.5,215.5C 311.5,207.5 311.5,199.5 311.5,191.5C 319.5,191.5 327.5,191.5 335.5,191.5 Z"/></g>
<g><path style="opacity:1" fill="#edeeed" d="M 335.5,191.5 C 343.5,191.5 351.5,191.5 359.5,191.5C 359.5,199.5 359.5,207.5 359.5,215.5C 351.5,215.5 343.5,215.5 335.5,215.5C 335.5,207.5 335.5,199.5 335.5,191.5 Z"/></g>
<g><path style="opacity:1" fill="#fefffe" d="M -0.5,215.5 C 7.5,215.5 15.5,215.5 23.5,215.5C 23.5,223.5 23.5,231.5 23.5,239.5C 15.5,239.5 7.5,239.5 -0.5,239.5C -0.5,231.5 -0.5,223.5 -0.5,215.5 Z"/></g>
<g><path style="opacity:1" fill="#edeeed" d="M 23.5,215.5 C 31.5,215.5 39.5,215.5 47.5,215.5C 47.5,223.5 47.5,231.5 47.5,239.5C 39.5,239.5 31.5,239.5 23.5,239.5C 23.5,231.5 23.5,223.5 23.5,215.5 Z"/></g>
<g><path style="opacity:1" fill="#fbfbfa" d="M 62.5,215.5 C 65.5057,223.542 68.5057,231.542 71.5,239.5C 63.5,239.5 55.5,239.5 47.5,239.5C 47.5,231.5 47.5,223.5 47.5,215.5C 52.711,215.365 57.711,215.365 62.5,215.5 Z"/></g>
<g><path style="opacity:1" fill="#ededed" d="M 95.5,191.5 C 103.5,191.5 111.5,191.5 119.5,191.5C 118.903,197.96 119.57,204.126 121.5,210C 120.244,210.417 119.577,211.25 119.5,212.5C 115.669,214.58 111.669,216.414 107.5,218C 100.449,224.309 96.1159,232.142 94.5,241.5C 93.3485,243.779 92.3485,246.112 91.5,248.5C 84.4101,239.076 79.0767,228.742 75.5,217.5C 81.8824,215.601 88.5491,214.934 95.5,215.5C 95.5,207.5 95.5,199.5 95.5,191.5 Z"/></g>
<g><path style="opacity:1" fill="#ececec" d="M 239.5,191.5 C 247.5,191.5 255.5,191.5 263.5,191.5C 263.5,199.5 263.5,207.5 263.5,215.5C 271.5,215.5 279.5,215.5 287.5,215.5C 287.5,207.5 287.5,199.5 287.5,191.5C 290.5,191.5 293.5,191.5 296.5,191.5C 296.314,197.581 295.481,203.581 294,209.5C 290.965,219.227 287.132,228.56 282.5,237.5C 279.89,241.125 277.223,244.792 274.5,248.5C 273.43,240.705 270.763,233.539 266.5,227C 257.135,221.317 247.135,216.984 236.5,214C 235.944,213.617 235.611,213.117 235.5,212.5C 236.583,212.539 237.583,212.873 238.5,213.5C 239.497,206.197 239.831,198.863 239.5,191.5 Z"/></g>
<g><path style="opacity:1" fill="#fefffe" d="M 263.5,191.5 C 271.5,191.5 279.5,191.5 287.5,191.5C 287.5,199.5 287.5,207.5 287.5,215.5C 279.5,215.5 271.5,215.5 263.5,215.5C 263.5,207.5 263.5,199.5 263.5,191.5 Z"/></g>
<g><path style="opacity:1" fill="#fefffe" d="M 335.5,215.5 C 343.5,215.5 351.5,215.5 359.5,215.5C 359.5,223.5 359.5,231.5 359.5,239.5C 351.5,239.5 343.5,239.5 335.5,239.5C 335.5,231.5 335.5,223.5 335.5,215.5 Z"/></g>
<g><path style="opacity:1" fill="#edeeed" d="M -0.5,239.5 C 7.5,239.5 15.5,239.5 23.5,239.5C 23.5,247.5 23.5,255.5 23.5,263.5C 15.5,263.5 7.5,263.5 -0.5,263.5C -0.5,255.5 -0.5,247.5 -0.5,239.5 Z"/></g>
<g><path style="opacity:1" fill="#fefffe" d="M 23.5,239.5 C 31.5,239.5 39.5,239.5 47.5,239.5C 47.5,247.5 47.5,255.5 47.5,263.5C 39.5,263.5 31.5,263.5 23.5,263.5C 23.5,255.5 23.5,247.5 23.5,239.5 Z"/></g>
<g><path style="opacity:1" fill="#fefffe" d="M 335.5,239.5 C 335.5,247.5 335.5,255.5 335.5,263.5C 327.5,263.5 319.5,263.5 311.5,263.5C 311.5,255.5 311.5,247.5 311.5,239.5C 319.5,239.5 327.5,239.5 335.5,239.5 Z"/></g>
<g><path style="opacity:1" fill="#edeeed" d="M 335.5,239.5 C 343.5,239.5 351.5,239.5 359.5,239.5C 359.5,247.5 359.5,255.5 359.5,263.5C 351.5,263.5 343.5,263.5 335.5,263.5C 335.5,255.5 335.5,247.5 335.5,239.5 Z"/></g>
<g><path style="opacity:1" fill="#959594" d="M 94.5,241.5 C 94.6928,244.811 93.6928,247.478 91.5,249.5C 91.5,249.167 91.5,248.833 91.5,248.5C 92.3485,246.112 93.3485,243.779 94.5,241.5 Z"/></g>
<g><path style="opacity:1" fill="#fefffe" d="M -0.5,263.5 C 7.5,263.5 15.5,263.5 23.5,263.5C 23.5,271.5 23.5,279.5 23.5,287.5C 15.5,287.5 7.5,287.5 -0.5,287.5C -0.5,279.5 -0.5,271.5 -0.5,263.5 Z"/></g>
<g><path style="opacity:1" fill="#edeeed" d="M 23.5,263.5 C 31.5,263.5 39.5,263.5 47.5,263.5C 47.5,271.5 47.5,279.5 47.5,287.5C 39.5,287.5 31.5,287.5 23.5,287.5C 23.5,279.5 23.5,271.5 23.5,263.5 Z"/></g>
<g><path style="opacity:1" fill="#fefffe" d="M 47.5,263.5 C 55.5,263.5 63.5,263.5 71.5,263.5C 71.5,271.5 71.5,279.5 71.5,287.5C 63.5,287.5 55.5,287.5 47.5,287.5C 47.5,279.5 47.5,271.5 47.5,263.5 Z"/></g>
<g><path style="opacity:1" fill="#fefffe" d="M 311.5,263.5 C 311.5,271.5 311.5,279.5 311.5,287.5C 303.5,287.5 295.5,287.5 287.5,287.5C 287.5,279.5 287.5,271.5 287.5,263.5C 295.5,263.5 303.5,263.5 311.5,263.5 Z"/></g>
<g><path style="opacity:1" fill="#edeeed" d="M 311.5,263.5 C 319.5,263.5 327.5,263.5 335.5,263.5C 335.5,271.5 335.5,279.5 335.5,287.5C 327.5,287.5 319.5,287.5 311.5,287.5C 311.5,279.5 311.5,271.5 311.5,263.5 Z"/></g>
<g><path style="opacity:1" fill="#fefffe" d="M 335.5,263.5 C 343.5,263.5 351.5,263.5 359.5,263.5C 359.5,271.5 359.5,279.5 359.5,287.5C 351.5,287.5 343.5,287.5 335.5,287.5C 335.5,279.5 335.5,271.5 335.5,263.5 Z"/></g>
<g><path style="opacity:1" fill="#edeeed" d="M -0.5,287.5 C 7.5,287.5 15.5,287.5 23.5,287.5C 23.5,295.5 23.5,303.5 23.5,311.5C 15.5,311.5 7.5,311.5 -0.5,311.5C -0.5,303.5 -0.5,295.5 -0.5,287.5 Z"/></g>
<g><path style="opacity:1" fill="#fefffe" d="M 23.5,287.5 C 31.5,287.5 39.5,287.5 47.5,287.5C 47.5,295.5 47.5,303.5 47.5,311.5C 39.5,311.5 31.5,311.5 23.5,311.5C 23.5,303.5 23.5,295.5 23.5,287.5 Z"/></g>
<g><path style="opacity:1" fill="#edeeed" d="M 47.5,287.5 C 55.5,287.5 63.5,287.5 71.5,287.5C 71.5,295.5 71.5,303.5 71.5,311.5C 63.5,311.5 55.5,311.5 47.5,311.5C 47.5,303.5 47.5,295.5 47.5,287.5 Z"/></g>
<g><path style="opacity:1" fill="#fefffe" d="M 71.5,287.5 C 79.5,287.5 87.5,287.5 95.5,287.5C 95.5,295.5 95.5,303.5 95.5,311.5C 87.5,311.5 79.5,311.5 71.5,311.5C 71.5,303.5 71.5,295.5 71.5,287.5 Z"/></g>
<g><path style="opacity:1" fill="#efefef" d="M 47.5,239.5 C 55.5,239.5 63.5,239.5 71.5,239.5C 74.8069,243.426 77.6403,247.76 80,252.5C 83.0316,256.359 86.1983,260.026 89.5,263.5C 98.4277,274.44 109.094,283.106 121.5,289.5C 119.537,296.424 118.87,303.757 119.5,311.5C 111.5,311.5 103.5,311.5 95.5,311.5C 95.5,303.5 95.5,295.5 95.5,287.5C 87.5,287.5 79.5,287.5 71.5,287.5C 71.5,279.5 71.5,271.5 71.5,263.5C 63.5,263.5 55.5,263.5 47.5,263.5C 47.5,255.5 47.5,247.5 47.5,239.5 Z"/></g>
<g><path style="opacity:1" fill="#fefffe" d="M 287.5,287.5 C 287.5,295.5 287.5,303.5 287.5,311.5C 279.5,311.5 271.5,311.5 263.5,311.5C 263.5,303.5 263.5,295.5 263.5,287.5C 271.5,287.5 279.5,287.5 287.5,287.5 Z"/></g>
<g><path style="opacity:1" fill="#edeeed" d="M 287.5,287.5 C 295.5,287.5 303.5,287.5 311.5,287.5C 311.5,295.5 311.5,303.5 311.5,311.5C 303.5,311.5 295.5,311.5 287.5,311.5C 287.5,303.5 287.5,295.5 287.5,287.5 Z"/></g>
<g><path style="opacity:1" fill="#fefffe" d="M 311.5,287.5 C 319.5,287.5 327.5,287.5 335.5,287.5C 335.5,295.5 335.5,303.5 335.5,311.5C 327.5,311.5 319.5,311.5 311.5,311.5C 311.5,303.5 311.5,295.5 311.5,287.5 Z"/></g>
<g><path style="opacity:1" fill="#edeeed" d="M 335.5,287.5 C 343.5,287.5 351.5,287.5 359.5,287.5C 359.5,295.5 359.5,303.5 359.5,311.5C 351.5,311.5 343.5,311.5 335.5,311.5C 335.5,303.5 335.5,295.5 335.5,287.5 Z"/></g>
<g><path style="opacity:1" fill="#fcfcfc" d="M 121.5,289.5 C 129.074,294.29 137.074,297.957 145.5,300.5C 143.702,303.831 143.036,307.498 143.5,311.5C 135.5,311.5 127.5,311.5 119.5,311.5C 118.87,303.757 119.537,296.424 121.5,289.5 Z"/></g>
<g><path style="opacity:1" fill="#fefffe" d="M -0.5,311.5 C 7.5,311.5 15.5,311.5 23.5,311.5C 23.5,319.5 23.5,327.5 23.5,335.5C 15.5,335.5 7.5,335.5 -0.5,335.5C -0.5,327.5 -0.5,319.5 -0.5,311.5 Z"/></g>
<g><path style="opacity:1" fill="#edeeed" d="M 23.5,311.5 C 31.5,311.5 39.5,311.5 47.5,311.5C 47.5,319.5 47.5,327.5 47.5,335.5C 39.5,335.5 31.5,335.5 23.5,335.5C 23.5,327.5 23.5,319.5 23.5,311.5 Z"/></g>
<g><path style="opacity:1" fill="#fefffe" d="M 47.5,311.5 C 55.5,311.5 63.5,311.5 71.5,311.5C 71.5,319.5 71.5,327.5 71.5,335.5C 63.5,335.5 55.5,335.5 47.5,335.5C 47.5,327.5 47.5,319.5 47.5,311.5 Z"/></g>
<g><path style="opacity:1" fill="#edeeed" d="M 71.5,311.5 C 79.5,311.5 87.5,311.5 95.5,311.5C 95.5,319.5 95.5,327.5 95.5,335.5C 87.5,335.5 79.5,335.5 71.5,335.5C 71.5,327.5 71.5,319.5 71.5,311.5 Z"/></g>
<g><path style="opacity:1" fill="#fefffe" d="M 95.5,311.5 C 103.5,311.5 111.5,311.5 119.5,311.5C 119.5,319.5 119.5,327.5 119.5,335.5C 111.5,335.5 103.5,335.5 95.5,335.5C 95.5,327.5 95.5,319.5 95.5,311.5 Z"/></g>
<g><path style="opacity:1" fill="#edeeed" d="M 119.5,311.5 C 127.5,311.5 135.5,311.5 143.5,311.5C 143.5,319.5 143.5,327.5 143.5,335.5C 135.5,335.5 127.5,335.5 119.5,335.5C 119.5,327.5 119.5,319.5 119.5,311.5 Z"/></g>
<g><path style="opacity:1" fill="#fefffe" d="M 143.5,311.5 C 151.5,311.5 159.5,311.5 167.5,311.5C 167.5,319.5 167.5,327.5 167.5,335.5C 159.5,335.5 151.5,335.5 143.5,335.5C 143.5,327.5 143.5,319.5 143.5,311.5 Z"/></g>
<g><path style="opacity:1" fill="#fefffe" d="M 215.5,335.5 C 207.5,335.5 199.5,335.5 191.5,335.5C 191.5,327.5 191.5,319.5 191.5,311.5C 199.5,311.5 207.5,311.5 215.5,311.5C 215.5,319.5 215.5,327.5 215.5,335.5 Z"/></g>
<g><path style="opacity:1" fill="#fefffe" d="M 263.5,311.5 C 263.5,319.5 263.5,327.5 263.5,335.5C 255.5,335.5 247.5,335.5 239.5,335.5C 239.5,327.5 239.5,319.5 239.5,311.5C 247.5,311.5 255.5,311.5 263.5,311.5 Z"/></g>
<g><path style="opacity:1" fill="#edeeed" d="M 263.5,311.5 C 271.5,311.5 279.5,311.5 287.5,311.5C 287.5,319.5 287.5,327.5 287.5,335.5C 279.5,335.5 271.5,335.5 263.5,335.5C 263.5,327.5 263.5,319.5 263.5,311.5 Z"/></g>
<g><path style="opacity:1" fill="#fefffe" d="M 287.5,311.5 C 295.5,311.5 303.5,311.5 311.5,311.5C 311.5,319.5 311.5,327.5 311.5,335.5C 303.5,335.5 295.5,335.5 287.5,335.5C 287.5,327.5 287.5,319.5 287.5,311.5 Z"/></g>
<g><path style="opacity:1" fill="#edeeed" d="M 311.5,311.5 C 319.5,311.5 327.5,311.5 335.5,311.5C 335.5,319.5 335.5,327.5 335.5,335.5C 327.5,335.5 319.5,335.5 311.5,335.5C 311.5,327.5 311.5,319.5 311.5,311.5 Z"/></g>
<g><path style="opacity:1" fill="#fefffe" d="M 335.5,311.5 C 343.5,311.5 351.5,311.5 359.5,311.5C 359.5,319.5 359.5,327.5 359.5,335.5C 351.5,335.5 343.5,335.5 335.5,335.5C 335.5,327.5 335.5,319.5 335.5,311.5 Z"/></g>
<g><path style="opacity:1" fill="#edeeed" d="M -0.5,335.5 C 7.5,335.5 15.5,335.5 23.5,335.5C 23.5,343.5 23.5,351.5 23.5,359.5C 15.5,359.5 7.5,359.5 -0.5,359.5C -0.5,351.5 -0.5,343.5 -0.5,335.5 Z"/></g>
<g><path style="opacity:1" fill="#fefffe" d="M 23.5,335.5 C 31.5,335.5 39.5,335.5 47.5,335.5C 47.5,343.5 47.5,351.5 47.5,359.5C 39.5,359.5 31.5,359.5 23.5,359.5C 23.5,351.5 23.5,343.5 23.5,335.5 Z"/></g>
<g><path style="opacity:1" fill="#edeeed" d="M 47.5,335.5 C 55.5,335.5 63.5,335.5 71.5,335.5C 71.5,343.5 71.5,351.5 71.5,359.5C 63.5,359.5 55.5,359.5 47.5,359.5C 47.5,351.5 47.5,343.5 47.5,335.5 Z"/></g>
<g><path style="opacity:1" fill="#fefffe" d="M 71.5,335.5 C 79.5,335.5 87.5,335.5 95.5,335.5C 95.5,343.5 95.5,351.5 95.5,359.5C 87.5,359.5 79.5,359.5 71.5,359.5C 71.5,351.5 71.5,343.5 71.5,335.5 Z"/></g>
<g><path style="opacity:1" fill="#edeeed" d="M 95.5,335.5 C 103.5,335.5 111.5,335.5 119.5,335.5C 119.5,343.5 119.5,351.5 119.5,359.5C 111.5,359.5 103.5,359.5 95.5,359.5C 95.5,351.5 95.5,343.5 95.5,335.5 Z"/></g>
<g><path style="opacity:1" fill="#fefffe" d="M 119.5,335.5 C 127.5,335.5 135.5,335.5 143.5,335.5C 143.5,343.5 143.5,351.5 143.5,359.5C 135.5,359.5 127.5,359.5 119.5,359.5C 119.5,351.5 119.5,343.5 119.5,335.5 Z"/></g>
<g><path style="opacity:1" fill="#edeeed" d="M 143.5,335.5 C 151.5,335.5 159.5,335.5 167.5,335.5C 167.5,343.5 167.5,351.5 167.5,359.5C 159.5,359.5 151.5,359.5 143.5,359.5C 143.5,351.5 143.5,343.5 143.5,335.5 Z"/></g>
<g><path style="opacity:1" fill="#fefffe" d="M 167.5,335.5 C 175.5,335.5 183.5,335.5 191.5,335.5C 191.5,343.5 191.5,351.5 191.5,359.5C 183.5,359.5 175.5,359.5 167.5,359.5C 167.5,351.5 167.5,343.5 167.5,335.5 Z"/></g>
<g><path style="opacity:1" fill="#edeeed" d="M 191.5,335.5 C 199.5,335.5 207.5,335.5 215.5,335.5C 215.5,343.5 215.5,351.5 215.5,359.5C 207.5,359.5 199.5,359.5 191.5,359.5C 191.5,351.5 191.5,343.5 191.5,335.5 Z"/></g>
<g><path style="opacity:1" fill="#fefffe" d="M 215.5,335.5 C 223.5,335.5 231.5,335.5 239.5,335.5C 239.5,343.5 239.5,351.5 239.5,359.5C 231.5,359.5 223.5,359.5 215.5,359.5C 215.5,351.5 215.5,343.5 215.5,335.5 Z"/></g>
<g><path style="opacity:1" fill="#edeeed" d="M 239.5,335.5 C 247.5,335.5 255.5,335.5 263.5,335.5C 263.5,343.5 263.5,351.5 263.5,359.5C 255.5,359.5 247.5,359.5 239.5,359.5C 239.5,351.5 239.5,343.5 239.5,335.5 Z"/></g>
<g><path style="opacity:1" fill="#fefffe" d="M 263.5,335.5 C 271.5,335.5 279.5,335.5 287.5,335.5C 287.5,343.5 287.5,351.5 287.5,359.5C 279.5,359.5 271.5,359.5 263.5,359.5C 263.5,351.5 263.5,343.5 263.5,335.5 Z"/></g>
<g><path style="opacity:1" fill="#edeeed" d="M 287.5,335.5 C 295.5,335.5 303.5,335.5 311.5,335.5C 311.5,343.5 311.5,351.5 311.5,359.5C 303.5,359.5 295.5,359.5 287.5,359.5C 287.5,351.5 287.5,343.5 287.5,335.5 Z"/></g>
<g><path style="opacity:1" fill="#fefffe" d="M 311.5,335.5 C 319.5,335.5 327.5,335.5 335.5,335.5C 335.5,343.5 335.5,351.5 335.5,359.5C 327.5,359.5 319.5,359.5 311.5,359.5C 311.5,351.5 311.5,343.5 311.5,335.5 Z"/></g>
<g><path style="opacity:1" fill="#edeeed" d="M 335.5,335.5 C 343.5,335.5 351.5,335.5 359.5,335.5C 359.5,343.5 359.5,351.5 359.5,359.5C 351.5,359.5 343.5,359.5 335.5,359.5C 335.5,351.5 335.5,343.5 335.5,335.5 Z"/></g>
</svg>
