<?xml version="1.0" encoding="UTF-8"?>
<!DOCTYPE svg PUBLIC "-//W3C//DTD SVG 1.1//EN" "http://www.w3.org/Graphics/SVG/1.1/DTD/svg11.dtd">
<svg xmlns="http://www.w3.org/2000/svg" version="1.1" width="360px" height="360px" style="shape-rendering:geometricPrecision; text-rendering:geometricPrecision; image-rendering:optimizeQuality; fill-rule:evenodd; clip-rule:evenodd" xmlns:xlink="http://www.w3.org/1999/xlink">
<g><path style="opacity:0.995" fill="#3f5c6a" d="M 128.5,-0.5 C 141.833,-0.5 155.167,-0.5 168.5,-0.5C 211.603,7.65365 229.936,33.6537 223.5,77.5C 217.249,83.9239 211.083,90.5905 205,97.5C 199.152,106.712 195.485,116.712 194,127.5C 193.5,146.83 193.333,166.164 193.5,185.5C 191.167,188.167 188.833,190.833 186.5,193.5C 184.086,194.911 182.419,196.911 181.5,199.5C 178.34,203.148 175.673,207.148 173.5,211.5C 172.094,211.973 171.427,212.973 171.5,214.5C 170.498,216.011 169.831,217.678 169.5,219.5C 168.094,219.973 167.427,220.973 167.5,222.5C 167.5,223.167 167.5,223.833 167.5,224.5C 166.094,224.973 165.427,225.973 165.5,227.5C 165.5,228.167 165.5,228.833 165.5,229.5C 163.926,231.102 163.259,233.102 163.5,235.5C 163.768,237.099 163.434,238.432 162.5,239.5C 161.691,241.292 161.191,243.292 161,245.5C 160.5,252.826 160.334,260.159 160.5,267.5C 160.334,271.514 160.501,275.514 161,279.5C 161.383,280.056 161.883,280.389 162.5,280.5C 163.592,285.775 165.258,290.775 167.5,295.5C 173.559,312.273 183.559,326.273 197.5,337.5C 197.973,338.906 198.973,339.573 200.5,339.5C 206.753,344.794 213.753,348.794 221.5,351.5C 221.973,352.906 222.973,353.573 224.5,353.5C 225.167,353.5 225.833,353.5 226.5,353.5C 228.102,355.074 230.102,355.741 232.5,355.5C 234.102,357.074 236.102,357.741 238.5,357.5C 239.5,357.5 240.5,357.5 241.5,357.5C 243.5,358.167 245.5,358.833 247.5,359.5C 164.833,359.5 82.1667,359.5 -0.5,359.5C -0.5,348.167 -0.5,336.833 -0.5,325.5C 3.05672,312.58 10.0567,301.747 20.5,293C 43.3394,280.08 66.3394,267.413 89.5,255C 95.4339,250.633 98.9339,244.8 100,237.5C 100.667,228.5 100.667,219.5 100,210.5C 88.804,195.439 80.804,178.772 76,160.5C 71.755,157.004 68.755,152.67 67,147.5C 66.3333,134.833 66.3333,122.167 67,109.5C 68.1727,105.663 70.1727,102.329 73,99.5C 73.7645,85.1513 73.5978,70.818 72.5,56.5C 73.5238,31.6072 85.5238,14.4405 108.5,5C 115.213,2.80998 121.88,0.976651 128.5,-0.5 Z"/></g>
<g><path style="opacity:0.961" fill="#83b4ca" d="M 327.5,185.5 C 326.448,185.649 325.448,185.483 324.5,185C 320.908,181.214 316.908,178.048 312.5,175.5C 310.879,173.058 308.546,171.725 305.5,171.5C 305.167,171.5 304.833,171.5 304.5,171.5C 304.027,170.094 303.027,169.427 301.5,169.5C 300.167,169.5 299.5,168.833 299.5,167.5C 298.685,154.242 298.185,140.908 298,127.5C 291.568,104.404 276.402,93.9038 252.5,96C 235.886,100.692 225.719,111.525 222,128.5C 221.815,141.575 221.315,154.575 220.5,167.5C 218.01,170.225 215.01,172.225 211.5,173.5C 209.152,173.592 207.486,174.592 206.5,176.5C 204.596,176.738 203.262,177.738 202.5,179.5C 200.973,179.427 199.973,180.094 199.5,181.5C 197.5,182.833 195.5,184.167 193.5,185.5C 193.333,166.164 193.5,146.83 194,127.5C 195.485,116.712 199.152,106.712 205,97.5C 211.083,90.5905 217.249,83.9239 223.5,77.5C 255.282,60.1593 284.115,64.1593 310,89.5C 318.192,99.0557 323.525,110.056 326,122.5C 327.429,143.46 327.929,164.46 327.5,185.5 Z M 299.5,167.5 C 273.167,156.833 246.833,156.833 220.5,167.5C 221.315,154.575 221.815,141.575 222,128.5C 225.719,111.525 235.886,100.692 252.5,96C 276.402,93.9038 291.568,104.404 298,127.5C 298.185,140.908 298.685,154.242 299.5,167.5 Z"/></g>
<g><path style="opacity:0.994" fill="#f0c319" d="M 299.5,167.5 C 299.5,168.833 300.167,169.5 301.5,169.5C 301.973,170.906 302.973,171.573 304.5,171.5C 304.833,171.5 305.167,171.5 305.5,171.5C 307.566,173.199 309.9,174.532 312.5,175.5C 316.908,178.048 320.908,181.214 324.5,185C 325.448,185.483 326.448,185.649 327.5,185.5C 344.731,201.63 355.397,221.296 359.5,244.5C 359.5,254.833 359.5,265.167 359.5,275.5C 349.5,321.5 321.5,349.5 275.5,359.5C 267.5,359.5 259.5,359.5 251.5,359.5C 251.389,358.883 251.056,358.383 250.5,358C 247.518,357.502 244.518,357.335 241.5,357.5C 240.5,357.5 239.5,357.5 238.5,357.5C 236.898,355.926 234.898,355.259 232.5,355.5C 230.898,353.926 228.898,353.259 226.5,353.5C 225.833,353.5 225.167,353.5 224.5,353.5C 224.027,352.094 223.027,351.427 221.5,351.5C 213.753,348.794 206.753,344.794 200.5,339.5C 200.027,338.094 199.027,337.427 197.5,337.5C 183.559,326.273 173.559,312.273 167.5,295.5C 163.254,277.099 161.588,258.432 162.5,239.5C 163.434,238.432 163.768,237.099 163.5,235.5C 165.074,233.898 165.741,231.898 165.5,229.5C 165.5,228.833 165.5,228.167 165.5,227.5C 166.906,227.027 167.573,226.027 167.5,224.5C 167.5,223.833 167.5,223.167 167.5,222.5C 168.906,222.027 169.573,221.027 169.5,219.5C 169.831,217.678 170.498,216.011 171.5,214.5C 172.906,214.027 173.573,213.027 173.5,211.5C 175.673,207.148 178.34,203.148 181.5,199.5C 183.914,198.089 185.581,196.089 186.5,193.5C 188.833,190.833 191.167,188.167 193.5,185.5C 195.5,184.167 197.5,182.833 199.5,181.5C 201.027,181.573 202.027,180.906 202.5,179.5C 203.262,177.738 204.596,176.738 206.5,176.5C 208.565,176.047 210.232,175.047 211.5,173.5C 215.01,172.225 218.01,170.225 220.5,167.5C 246.833,156.833 273.167,156.833 299.5,167.5 Z"/></g>
<g><path style="opacity:0.906" fill="#bebc88" d="M 301.5,169.5 C 303.027,169.427 304.027,170.094 304.5,171.5C 302.973,171.573 301.973,170.906 301.5,169.5 Z"/></g>
<g><path style="opacity:0.953" fill="#b1b99e" d="M 305.5,171.5 C 308.546,171.725 310.879,173.058 312.5,175.5C 309.9,174.532 307.566,173.199 305.5,171.5 Z"/></g>
<g><path style="opacity:0.925" fill="#bbbd8d" d="M 211.5,173.5 C 210.232,175.047 208.565,176.047 206.5,176.5C 207.486,174.592 209.152,173.592 211.5,173.5 Z"/></g>
<g><path style="opacity:0.976" fill="#cfc36a" d="M 202.5,179.5 C 202.027,180.906 201.027,181.573 199.5,181.5C 199.973,180.094 200.973,179.427 202.5,179.5 Z"/></g>
<g><path style="opacity:0.937" fill="#b7a549" d="M 186.5,193.5 C 185.581,196.089 183.914,198.089 181.5,199.5C 182.419,196.911 184.086,194.911 186.5,193.5 Z"/></g>
<g><path style="opacity:1" fill="#514e3a" d="M 267.5,208.5 C 261.464,208.36 255.464,208.693 249.5,209.5C 249.918,208.778 250.584,208.278 251.5,208C 257.016,207.183 262.35,207.349 267.5,208.5 Z"/></g>
<g><path style="opacity:1" fill="#625c3e" d="M 247.5,209.5 C 246.147,211.738 244.147,213.071 241.5,213.5C 243.034,211.631 245.034,210.298 247.5,209.5 Z"/></g>
<g><path style="opacity:1" fill="#2c3d4f" d="M 267.5,208.5 C 273.981,209.643 279.314,212.643 283.5,217.5C 284.08,219.749 285.413,221.415 287.5,222.5C 287.427,224.027 288.094,225.027 289.5,225.5C 289.328,226.492 289.662,227.158 290.5,227.5C 291.35,235.199 291.35,242.866 290.5,250.5C 290.5,251.167 290.5,251.833 290.5,252.5C 289.508,254.456 288.508,256.456 287.5,258.5C 285.529,260.808 283.529,263.142 281.5,265.5C 279.973,265.427 278.973,266.094 278.5,267.5C 276.973,267.427 275.973,268.094 275.5,269.5C 274.833,269.5 274.167,269.5 273.5,269.5C 272.8,283.372 272.134,297.372 271.5,311.5C 271.5,312.167 271.5,312.833 271.5,313.5C 269.445,315.555 267.112,317.221 264.5,318.5C 260.766,318.677 257.099,318.344 253.5,317.5C 251.97,316.789 250.637,315.789 249.5,314.5C 249.443,313.391 249.11,312.391 248.5,311.5C 249.149,297.127 248.482,283.127 246.5,269.5C 246.167,269.5 245.833,269.5 245.5,269.5C 245.027,268.094 244.027,267.427 242.5,267.5C 238.922,265.924 235.922,263.591 233.5,260.5C 232.492,258.456 231.492,256.456 230.5,254.5C 229.662,254.158 229.328,253.492 229.5,252.5C 228.962,250.883 228.629,249.216 228.5,247.5C 228.334,243.154 228.501,238.821 229,234.5C 230.065,236.396 230.898,236.563 231.5,235C 230.217,231.489 230.217,227.989 231.5,224.5C 232.433,221.63 234.1,219.296 236.5,217.5C 238.749,216.92 240.415,215.587 241.5,213.5C 244.147,213.071 246.147,211.738 247.5,209.5C 248.167,209.5 248.833,209.5 249.5,209.5C 255.464,208.693 261.464,208.36 267.5,208.5 Z"/></g>
<g><path style="opacity:0.894" fill="#a18c4b" d="M 173.5,211.5 C 173.573,213.027 172.906,214.027 171.5,214.5C 171.427,212.973 172.094,211.973 173.5,211.5 Z"/></g>
<g><path style="opacity:1" fill="#4a4d3b" d="M 241.5,213.5 C 240.415,215.587 238.749,216.92 236.5,217.5C 237.585,215.413 239.251,214.08 241.5,213.5 Z"/></g>
<g><path style="opacity:1" fill="#5b5636" d="M 283.5,217.5 C 285.587,218.585 286.92,220.251 287.5,222.5C 285.413,221.415 284.08,219.749 283.5,217.5 Z"/></g>
<g><path style="opacity:0.918" fill="#8f864b" d="M 169.5,219.5 C 169.573,221.027 168.906,222.027 167.5,222.5C 167.427,220.973 168.094,219.973 169.5,219.5 Z"/></g>
<g><path style="opacity:1" fill="#716943" d="M 287.5,222.5 C 288.906,222.973 289.573,223.973 289.5,225.5C 288.094,225.027 287.427,224.027 287.5,222.5 Z"/></g>
<g><path style="opacity:0.925" fill="#8c7f4d" d="M 167.5,224.5 C 167.573,226.027 166.906,227.027 165.5,227.5C 165.427,225.973 166.094,224.973 167.5,224.5 Z"/></g>
<g><path style="opacity:0.937" fill="#a6954f" d="M 165.5,229.5 C 165.741,231.898 165.074,233.898 163.5,235.5C 163.259,233.102 163.926,231.102 165.5,229.5 Z"/></g>
<g><path style="opacity:1" fill="#444a45" d="M 231.5,224.5 C 230.217,227.989 230.217,231.489 231.5,235C 230.898,236.563 230.065,236.396 229,234.5C 228.501,238.821 228.334,243.154 228.5,247.5C 227.517,243.702 227.183,239.702 227.5,235.5C 227.481,231.229 228.814,227.563 231.5,224.5 Z"/></g>
<g><path style="opacity:1" fill="#40413a" d="M 290.5,227.5 C 291.94,231.406 292.606,235.573 292.5,240C 292.696,243.805 292.03,247.305 290.5,250.5C 291.35,242.866 291.35,235.199 290.5,227.5 Z"/></g>
<g><path style="opacity:1" fill="#caa931" d="M 227.5,235.5 C 227.183,239.702 227.517,243.702 228.5,247.5C 228.629,249.216 228.962,250.883 229.5,252.5C 228.85,252.196 228.183,251.863 227.5,251.5C 226.185,246.014 226.185,240.68 227.5,235.5 Z"/></g>
<g><path style="opacity:1" fill="#b59934" d="M 290.5,252.5 C 290.975,255.313 289.975,257.313 287.5,258.5C 288.508,256.456 289.508,254.456 290.5,252.5 Z"/></g>
<g><path style="opacity:1" fill="#c4a73a" d="M 230.5,254.5 C 231.492,256.456 232.492,258.456 233.5,260.5C 231.025,259.313 230.025,257.313 230.5,254.5 Z"/></g>
<g><path style="opacity:1" fill="#ab923f" d="M 281.5,265.5 C 281.027,266.906 280.027,267.573 278.5,267.5C 278.973,266.094 279.973,265.427 281.5,265.5 Z"/></g>
<g><path style="opacity:1" fill="#5c5a38" d="M 242.5,267.5 C 244.027,267.427 245.027,268.094 245.5,269.5C 243.973,269.573 242.973,268.906 242.5,267.5 Z"/></g>
<g><path style="opacity:1" fill="#a9923f" d="M 278.5,267.5 C 278.027,268.906 277.027,269.573 275.5,269.5C 275.973,268.094 276.973,267.427 278.5,267.5 Z"/></g>
<g><path style="opacity:1" fill="#736e45" d="M 273.5,269.5 C 273.667,283.171 273.5,296.837 273,310.5C 272.617,311.056 272.117,311.389 271.5,311.5C 272.134,297.372 272.8,283.372 273.5,269.5 Z"/></g>
<g><path style="opacity:1" fill="#303b3a" d="M 246.5,269.5 C 248.482,283.127 249.149,297.127 248.5,311.5C 248.167,311.5 247.833,311.5 247.5,311.5C 247.815,297.421 247.482,283.421 246.5,269.5 Z"/></g>
<g><path style="opacity:0.984" fill="#616951" d="M 160.5,267.5 C 161.449,271.657 162.116,275.99 162.5,280.5C 161.883,280.389 161.383,280.056 161,279.5C 160.501,275.514 160.334,271.514 160.5,267.5 Z"/></g>
<g><path style="opacity:1" fill="#d4b540" d="M 162.5,239.5 C 161.588,258.432 163.254,277.099 167.5,295.5C 165.258,290.775 163.592,285.775 162.5,280.5C 162.116,275.99 161.449,271.657 160.5,267.5C 160.334,260.159 160.5,252.826 161,245.5C 161.191,243.292 161.691,241.292 162.5,239.5 Z"/></g>
<g><path style="opacity:1" fill="#deba31" d="M 273.5,269.5 C 274.167,269.5 274.833,269.5 275.5,269.5C 274.684,283.425 274.184,297.425 274,311.5C 273.292,312.381 272.458,313.047 271.5,313.5C 271.5,312.833 271.5,312.167 271.5,311.5C 272.117,311.389 272.617,311.056 273,310.5C 273.5,296.837 273.667,283.171 273.5,269.5 Z"/></g>
<g><path style="opacity:1" fill="#ad9036" d="M 247.5,311.5 C 247.833,311.5 248.167,311.5 248.5,311.5C 249.11,312.391 249.443,313.391 249.5,314.5C 248.094,314.027 247.427,313.027 247.5,311.5 Z"/></g>
<g><path style="opacity:1" fill="#6b663f" d="M 253.5,317.5 C 257.099,318.344 260.766,318.677 264.5,318.5C 261.36,319.641 258.027,319.808 254.5,319C 253.944,318.617 253.611,318.117 253.5,317.5 Z"/></g>
<g><path style="opacity:0.945" fill="#af9f53" d="M 197.5,337.5 C 199.027,337.427 200.027,338.094 200.5,339.5C 198.973,339.573 197.973,338.906 197.5,337.5 Z"/></g>
<g><path style="opacity:0.886" fill="#8e8249" d="M 221.5,351.5 C 223.027,351.427 224.027,352.094 224.5,353.5C 222.973,353.573 221.973,352.906 221.5,351.5 Z"/></g>
<g><path style="opacity:0.984" fill="#bfa74e" d="M 226.5,353.5 C 228.898,353.259 230.898,353.926 232.5,355.5C 230.102,355.741 228.102,355.074 226.5,353.5 Z"/></g>
<g><path style="opacity:0.851" fill="#9e8d48" d="M 232.5,355.5 C 234.898,355.259 236.898,355.926 238.5,357.5C 236.102,357.741 234.102,357.074 232.5,355.5 Z"/></g>
<g><path style="opacity:1" fill="#caad4e" d="M 241.5,357.5 C 244.518,357.335 247.518,357.502 250.5,358C 251.056,358.383 251.389,358.883 251.5,359.5C 250.167,359.5 248.833,359.5 247.5,359.5C 245.5,358.833 243.5,358.167 241.5,357.5 Z"/></g>
</svg>
